<?xml version="1.0" encoding="UTF-8" standalone="no"?><svg xmlns="http://www.w3.org/2000/svg" xmlns:xlink="http://www.w3.org/1999/xlink" fill="#000000" height="896.9" preserveAspectRatio="xMidYMid meet" version="1" viewBox="0.1 0.2 1071.3 896.9" width="1071.3" zoomAndPan="magnify"><g id="change1_1"><path d="M1068.50879,632.42975c-48.242-63.65637-97.4679-128.6207-147.31348-194.4429l0.04095-0.18793 c-0.07233-0.01575-0.1449-0.02917-0.21722-0.04486c-12.164-16.06293-24.36713-32.17993-36.59985-48.33875l0.00848-0.04706 c-0.01685-0.00305-0.03369-0.00549-0.05054-0.00854C787.98688,262.03323,689.63074,131.93654,591.86713,2.22762l-1.52051-2.0166 l-1.04395,2.2998c-9.19489,20.26276-18.961,40.63477-29.33264,61.1972l-0.03943,0.01959 c0.00488,0.00983,0.00977,0.01971,0.01465,0.02954c-11.30664,22.41443-23.33557,45.05615-36.15588,68.03754l-0.83191,0.21271 l0.22394,0.87561c-12.30728,22.0293-25.33694,44.37073-39.14365,67.12134l-0.30389,0.02454l0.03381,0.4187 c-7.55115,12.43658-15.33148,24.99414-23.3551,37.69116c-16.58502,26.24495-33.85516,53.15077-52.25854,79.57527l-0.67749-0.09235 l-0.18127,1.3299c-10.82043,15.49719-22.04407,30.81152-33.75439,45.72827l-1.34705-0.28131l-0.56458,2.70148 c-9.00769,11.38745-18.28918,22.54437-27.92371,33.33563c-0.98273,1.10071-1.9798,2.19788-2.97876,3.29474l-1.5564-0.41876 l-0.80396,2.98633c-8.89514,9.61694-18.48944,19.15332-29.22882,29.021l-0.73383-0.23584l-0.4137,1.28711 c-8.53552,7.80243-17.78821,15.82263-28.00134,24.27185l-0.18652-0.06873l-0.11725,0.31842 c-3.46204,2.86169-7.0213,5.76715-10.71039,8.73529c-5.37793,4.32703-10.57404,8.89435-15.63611,13.62201l-0.12903-0.04681 c-0.03076,0.08472-0.0625,0.16925-0.09332,0.25397c-17.56042,16.43115-33.4184,34.89468-48.86176,52.89346 c-6.51562,7.59375-13.25293,15.44629-19.9751,22.97266l-0.13721,0.15332l-0.09033,0.18457 c-14.40088,29.31934-29.50293,51.40625-48.96777,71.61621c-2.14362,2.22577-4.19965,4.42023-6.19269,6.59741 c-0.1048,0.02405-0.20935,0.05048-0.31415,0.07446l0.04865,0.21283c-4.66022,5.10291-8.92279,10.10071-12.87891,15.10455 c-0.32605,0.01782-0.65173,0.04285-0.97784,0.05957l0.05719,1.11749c-8.5896,11.00244-15.7276,22.08618-22.29059,34.47333 l-28.89258,54.52734c-20.9458,39.52832-41.89209,79.05566-62.82422,118.59082l-0.68164,1.28711l1.2666,0.71973 c38.81836,22.04102,80.57764,33.02051,126.20947,33.02051c29.83301,0,61.32715-4.69629,94.71777-14.06348 c73.41309-20.5957,146.16309-60.99023,210.34912-96.62988c10.22119-5.67578,19.87598-11.03711,29.56641-16.34473 c92.37936-50.59863,190.97507-102.48047,291.41843-132.14355c113.85449-33.62109,216.29688-34.64355,313.18463-3.11719 l4.54883,1.47949L1068.50879,632.42975z M176.05899,856.67584l9.54736-29.70624c14.27771-2.97266,28.5094-6.92957,42.65143-11.67371 l-8.4483,31.38092C204.86819,851.01105,190.29367,854.34357,176.05899,856.67584z M218.89822,850.06183l-8.83331,32.81128 l0.50983,0.13721c-15.67804,3.9613-30.92548,6.85571-45.76971,8.68213l10.22235-31.80664 C189.30582,857.61163,203.92117,854.33698,218.89822,850.06183z M110.71609,707.39056 c5.52771,0.39844,11.07452,0.60852,16.64618,0.60852c1.77936,0,3.56201-0.02771,5.34619-0.06842l-12.08289,26.71008 c-7.53992-0.20972-15.02411-0.78369-22.45868-1.72113L110.71609,707.39056z M95.02188,732.51624 c-6.77155-0.94897-13.50116-2.21472-20.19745-3.76776l12.81891-24.19232c6.59326,1.14777,13.20862,2.01178,19.85236,2.58435 L95.02188,732.51624z M103.9111,675.18768c4.08673-6.51196,8.49384-12.77325,13.36835-19.00995 c6.16681-0.36694,12.32263-0.92865,18.4704-1.69366c-4.3205,7.08081-8.53369,14.27759-12.55231,21.61456 C116.75369,676.06323,110.32651,675.75458,103.9111,675.18768z M139.58005,653.9776 c6.82367-0.94177,13.63922-2.12476,20.45117-3.56171c-4.13342,8.09918-8.20447,16.27466-12.15857,24.51874 c-7.10657,0.7049-14.18658,1.09113-21.24542,1.15582C130.77432,668.58673,135.12448,661.22437,139.58005,653.9776z M162.69858,617.84668c6.46075-3.13129,12.98254-6.46704,19.56378-10.00824c-1.50842,2.86884-3.01593,5.73236-4.51874,8.58447 c-1.4212,2.69739-2.849,5.40851-4.27826,8.12622c-6.45087,2.38-12.90936,4.56177-19.37939,6.55267 c1.77179-2.73492,3.54242-5.4574,5.3056-8.16815C160.49203,621.24182,161.59482,619.54633,162.69858,617.84668z M172.4277,588.43561 c4.04706-3.65741,8.05487-7.39941,12.03113-11.17944c-3.56128,6.13031-7.22644,12.16931-10.95178,18.12909 c-3.90125,2.84473-7.83136,5.64905-11.80005,8.39258c3.55707-5.03778,6.98822-10.27972,10.32599-15.77911L172.4277,588.43561z M207.87875,536.73395c5.99872-6.9903,12.06525-14.03735,18.27167-20.9978c-3.74292,9.48505-7.75391,18.84473-11.95709,28.08917 c-1.70221,1.69299-3.40063,3.38428-5.08984,5.06732c-4.04675,4.03217-8.14264,8.10883-12.27594,12.18536 c4.10297-7.8576,7.96863-15.89374,11.47809-24.1629L207.87875,536.73395z M442.82895,308.48184l-1.5329,35.03284 c-13.45667,16.90576-27.13165,33.88922-41.21741,50.60425l4.65594-34.16205 C417.47787,343.41415,430.07205,326.25821,442.82895,308.48184z M405.54996,353.97421l4.62073-33.90375 c11.90594-17.073,23.33423-34.34186,34.40521-51.51263l-1.50708,34.44275 C430.47867,320.59476,418.07339,337.58517,405.54996,353.97421z M807.21191,292.3602 c-38.77802-2.11389-77.46753,5.39185-118.35071,23.27472c-6.70306-13.41199-13.43256-26.87817-20.18182-40.38721 c31.36475-16.73877,66.12909-28.52785,104.36511-28.06709C784.44934,262.26462,795.83881,277.3248,807.21191,292.3602z M82.78287,825.5733l12.30603-27.20325c8.68927,1.26813,17.50348,2.02679,26.44946,2.28638l-11.82037,28.72333 C100.71982,828.66364,91.7377,827.40973,82.78287,825.5733z M108.51413,832.30505l-10.99554,26.71906 c-9.37073-1.09583-18.59009-2.71924-27.67206-4.85413l11.66919-25.79547C90.49417,830.24817,99.49673,831.54712,108.51413,832.30505 z M79.77908,824.93475c-7.88928-1.73505-15.75641-3.92419-23.59314-6.61237l12.51208-25.45367 c7.67505,2.09277,15.44519,3.76276,23.31439,5.02338L79.77908,824.93475z M292.06784,591.59967 c13.16705-8.86823,25.99402-18.33606,38.54291-28.22882l-7.28717,34.86847c-13.39148,9.80371-27.05676,19.09637-40.9502,27.58258 l9.1084-33.83295C291.67734,591.8576,291.87228,591.73138,292.06784,591.59967z M281.24564,630.01099 c13.97021-8.40955,27.70483-17.64337,41.16467-27.40179l-7.14301,34.17902c-14.06073,9.42834-28.38599,18.28961-42.91962,26.27411 L281.24564,630.01099z M326.02585,599.97345c16.49988-12.11926,32.57599-24.98578,48.15363-38.03961l-4.8241,35.39618 c-16.36389,12.75903-33.23755,25.3056-50.51917,37.04535L326.02585,599.97345z M326.9473,595.56427l7.34363-35.13855 c15.50232-12.37598,30.58856-25.37213,45.36578-38.68024l-4.87433,35.76465 C359.30771,570.54132,343.33597,583.41229,326.9473,595.56427z M278.66245,628.06793 c-0.17212,0.10303-0.34332,0.20929-0.5155,0.31201c-11.71014,6.98846-23.27148,13.19897-34.7066,18.64075l10.30988-32.0788 c11.25421-6.12372,22.56329-12.93597,33.94879-20.44031L278.66245,628.06793z M277.5463,632.21381l-8.8399,32.83588 c-12.4137,6.67615-24.63263,12.50201-36.68359,17.49652l10.16486-31.62769C253.84,645.47974,265.61868,639.24689,277.5463,632.21381 z M267.63943,669.01294l-8.68109,32.24579c-12.91986,6.22064-25.6134,11.56567-38.10712,16.04749l9.97107-31.02466 C242.92136,681.36633,255.186,675.61176,267.63943,669.01294z M271.2684,667.07141 c14.6073-7.90869,28.99823-16.7146,43.12384-26.09625l-7.03815,33.67694c-14.71545,9.01196-29.67749,17.40845-44.82031,24.86389 L271.2684,667.07141z M317.95334,638.59991c17.38776-11.70239,34.36011-24.242,50.82239-37.01691l-4.78235,35.08966 c-17.23792,12.41266-34.98627,24.55719-53.12152,35.81171L317.95334,638.59991z M372.16269,598.94769 c19.51819-15.2467,38.30231-30.76697,56.18445-45.54333c1.31079-1.08313,2.61053-2.1571,3.90607-3.22736l-1.59076,36.35565 c-1.76337,1.35229-3.53546,2.71173-5.32605,4.08557c-18.47937,14.17767-37.87634,29.05774-57.98499,43.63141L372.16269,598.94769z M426.436,551.09186c-17.1192,14.14581-35.06952,28.97424-53.69147,43.58679l4.85413-35.61633 c18.4483-15.5614,36.18213-31.32538,53.0722-46.3396c1.12463-0.99973,2.23895-1.9902,3.35156-2.97897l-1.59259,36.39682 C430.44693,547.77795,428.45389,549.42438,426.436,551.09186z M428.6777,510.48056 c-16.09479,14.30746-32.96082,29.29648-50.47333,44.13736l4.90527-35.99164c17.9295-16.2532,35.42444-32.90549,52.68506-49.3851 l-1.58954,36.32727C432.37637,507.19315,430.53836,508.82651,428.6777,510.48056z M435.98404,464.91367 c-17.13007,16.35675-34.479,32.91943-52.24603,49.10196l4.87933-35.80106c16.65308-16.27075,32.91266-32.8493,48.94379-49.34253 L435.98404,464.91367z M380.28293,517.15039c-14.68054,13.28754-29.65485,26.28815-45.03162,38.67981l7.24341-34.65924 c14.55164-12.80002,28.72931-26.06815,42.6333-39.57034L380.28293,517.15039z M331.57071,558.77728 c-12.66681,10.08319-25.61194,19.73499-38.89545,28.77844l8.74951-32.50012c1.2782-0.98059,2.55609-1.95844,3.83594-2.95496 c11.40417-8.87982,22.54523-18.1463,33.48779-27.6687L331.57071,558.77728z M288.87973,590.11597 c-11.33679,7.5788-22.59344,14.46301-33.79193,20.66394l9.48859-29.52338c10.93713-7.15558,21.91089-14.89508,32.94177-23.22797 L288.87973,590.11597z M251.26016,612.88379c-9.93195,5.36743-19.8197,10.18445-29.68018,14.47925l9.57251-25.995 c9.79651-5.3775,19.60486-11.21014,29.44037-17.52264L251.26016,612.88379z M249.94302,616.98218l-10.20941,31.7663 c-10.29498,4.76038-20.49023,8.90112-30.59937,12.41193l11.01147-29.90253 C230.04764,627.03723,239.97537,622.27441,249.94302,616.98218z M238.48819,652.62354l-10.09216,31.40143 c-10.69073,4.29333-21.24927,7.92188-31.69263,10.89227l11.09552-30.13074 C217.94186,661.35382,228.16617,657.30304,238.48819,652.62354z M227.20566,687.72882l-9.91199,30.84088 c-11.07892,3.83984-21.99884,6.98297-32.78119,9.45306l10.90942-29.62555 C205.89902,695.50049,216.48819,691.94592,227.20566,687.72882z M216.14828,722.13354l-9.60394,29.88245 c-11.14435,3.2428-22.40234,5.89868-33.77216,7.88837l10.49963-28.51257 C194.08835,728.98981,205.0419,725.90295,216.14828,722.13354z M219.69327,720.909 c12.54065-4.40747,25.27759-9.6806,38.23621-15.82855l-8.49329,31.54834c-12.97375,5.49323-26.10938,10.3233-39.40515,14.34406 L219.69327,720.909z M261.49515,703.37415c15.21362-7.38245,30.23956-15.72693,45.01691-24.69275l-6.97449,33.37225 c-15.29114,8.45508-30.82202,16.23792-46.59052,23.07233L261.49515,703.37415z M310.02487,676.53705 c18.2348-11.21399,36.07953-23.34271,53.40973-35.76434l-4.78339,35.09723c-18.18121,12.04437-36.72955,23.63831-55.64368,34.24469 L310.02487,676.53705z M366.79202,638.35431c20.96411-15.12701,41.16272-30.61963,60.37054-45.3562 c1.117-0.85706,2.22253-1.70514,3.32867-2.55365l-1.59912,36.54602c-0.50098,0.35706-0.9967,0.71039-1.50006,1.06915 c-21.24683,15.1441-43.052,30.68158-65.41113,45.59503L366.79202,638.35431z M433.5983,588.06195 c9.82153-7.52985,19.26886-14.74677,28.67853-21.78748c7.09521-5.30957,14.23584-10.68652,21.4248-16.09961 c8.85284-6.66602,17.75195-13.36572,26.70581-20.0473l3.0361,37.57355c-13.54678,9.32971-26.97989,18.73322-40.32004,28.07434 c-4.18799,2.93262-8.36182,5.85449-12.52148,8.7627c-9.44794,6.60425-18.82892,13.27338-28.61041,20.24335L433.5983,588.06195z M481.89694,547.77838c-7.18652,5.41113-14.32471,10.78613-21.41797,16.09375c-8.78375,6.57324-17.59338,13.29352-26.70953,20.27875 l1.59912-36.54633c9.32471-7.69806,18.3103-15.08679,27.25592-22.29395c9.83691-7.9248,19.60742-15.92868,29.95166-24.40329 c4.8064-3.93756,9.64313-7.8999,14.51074-11.8736l3.03528,37.56308C500.65482,533.65436,491.25052,540.73523,481.89694,547.77838z M490.67477,498.58603c-10.33936,8.4707-20.10498,16.47165-29.93213,24.38864c-8.29041,6.67926-16.60724,13.50745-25.19745,20.59424 l1.6015-36.60062c8.6662-7.69727,17.02167-15.09277,25.36548-22.34515c4.16406-3.61816,8.32715-7.24414,12.4917-10.87109 c9.53564-8.30408,19.14252-16.66492,28.82727-25.00952l2.96222,36.65894 C501.38345,489.81442,496.00949,494.21573,490.67477,498.58603z M473.03366,471.48935 c-4.16406,3.62695-8.32617,7.25195-12.48926,10.87012c-7.65588,6.65393-15.315,13.42249-23.21509,20.43451l1.59906-36.54388 c7.73053-7.38177,15.6983-14.98743,23.4549-22.31152c4.86816-4.59668,9.7334-9.20508,14.60107-13.81445 c7.79498-7.38208,15.64001-14.81146,23.54529-22.23962l3.0025,37.15741 C493.28043,453.86398,483.11697,462.70828,473.03366,471.48935z M474.92136,427.94638 c-4.86621,4.6084-9.73047,9.21484-14.59766,13.81055c-7.00995,6.61938-14.18359,13.46057-21.20593,20.16504l1.58765-36.2843 c3.17755-3.27252,6.34851-6.54138,9.50989-9.80164c4.16064-4.29102,8.30664-8.56738,12.44043-12.81934 c6.71338-6.90723,13.40918-13.83789,20.10645-20.77148c4.80444-4.97314,9.63354-9.97015,14.48553-14.97601l2.97308,36.79333 C491.72232,412.03873,483.29135,420.0195,474.92136,427.94638z M500.02609,364.40585 c21.31906-21.96533,43.13425-44.06219,65.69937-65.17206l9.65875,37.76654c-24.86279,20.56781-48.8913,42.45465-72.36551,64.44061 L500.02609,364.40585z M499.70474,360.42935l-3.00183-37.14899c19.0513-21.73914,38.52011-43.70703,58.54459-65.0163 l9.63159,37.66022C542.48865,316.81058,520.8465,338.66873,499.70474,360.42935z M496.92636,363.29276 c-5.47028,5.63898-10.91199,11.26892-16.32141,16.86847c-6.6958,6.93066-13.38916,13.85938-20.10059,20.76367 c-4.13428,4.25391-8.28125,8.53027-12.44287,12.82227c-2.38092,2.45544-4.76874,4.91711-7.15869,7.37994l1.57281-35.94525 c2.00122-2.28278,4.00122-4.56494,5.99506-6.84094c4.68311-5.3457,9.36426-10.68848,14.05225-16.01953 c6.95996-7.91309,13.89893-15.85205,20.83984-23.79346c3.51379-4.02014,7.04315-8.05725,10.58459-12.10229L496.92636,363.29276z M437.75833,424.36484c-15.88818,16.35925-31.99896,32.81897-48.47943,48.99554l4.62909-33.96497 c15.51361-16.69946,30.57837-33.71375,45.40723-50.61182L437.75833,424.36484z M385.78476,476.78195 c-13.79047,13.45679-27.8504,26.68713-42.26245,39.4722l6.78162-32.44974c13.76117-13.12134,27.07422-26.73895,40.05847-40.61017 L385.78476,476.78195z M339.76486,519.56897c-11.85883,10.40942-23.953,20.51355-36.34741,30.16449 c-0.23566,0.18353-0.47076,0.36115-0.70636,0.54413l8.5542-31.77435c3.5899-2.99231,7.18915-6.02649,10.80011-9.11447 c8.31024-7.10663,16.43616-14.44464,24.41443-21.9505L339.76486,519.56897z M298.79208,553.29663 c-10.97064,8.38971-21.88098,16.18695-32.75171,23.40479l9.57281-29.78558c10.44965-7.93567,21.00494-16.30994,31.65399-25.10004 L298.79208,553.29663z M262.04581,579.32465c-9.79468,6.38074-19.55994,12.2981-29.31018,17.74438l9.61401-26.1076 c9.60437-6.58661,19.30859-13.5603,29.10504-20.91229L262.04581,579.32465z M228.72525,599.27686 c-8.36749,4.56677-16.72626,8.7951-25.08539,12.68536c3.17151-7.28949,6.35834-14.61865,9.5451-21.98907 c8.21875-5.06946,16.52167-10.4472,24.89874-16.10999L228.72525,599.27686z M227.15457,603.54218l-9.37445,25.45697 c-8.59454,3.62653-17.16962,6.84723-25.73541,9.66718c3.27887-7.5824,6.55341-15.11542,9.79773-22.57202 C210.27921,612.25018,218.71341,608.06842,227.15457,603.54218z M216.36783,632.83441l-10.88708,29.5647 c-8.99377,2.99591-17.92145,5.49359-26.79504,7.50366c3.88739-9.22266,7.82843-18.42792,11.77386-27.5697 C199.08493,639.57159,207.71774,636.40527,216.36783,632.83441z M204.15604,665.9964l-11.01611,29.9151 c-9.32532,2.52454-18.55939,4.51599-27.71527,5.98608l5.83655-14.18268c1.97601-4.80194,3.98096-9.60706,5.99738-14.41016 C186.16855,671.36108,195.13095,668.92389,204.15604,665.9964z M191.8707,699.35828l-10.84607,29.45337 c-9.62836,2.07977-19.1452,3.60541-28.56519,4.59119l11.6272-28.25391C173.2681,703.74194,182.52518,701.81519,191.8707,699.35828z M179.79721,732.14465l-10.43372,28.33374c-9.70673,1.58008-19.49414,2.67157-29.36469,3.20367l11.16022-27.1192 C160.6055,735.63501,170.14755,734.16241,179.79721,732.14465z M168.16153,763.74237l-11.94958,32.44995 c-10.2525,1.13654-20.32611,1.65753-30.23138,1.55389l12.74951-30.98108 C148.62442,766.28772,158.43539,765.26569,168.16153,763.74237z M171.56296,763.18811 c11.40509-1.92456,22.6936-4.52594,33.86749-7.7063l-10.85529,33.77594c-11.91003,2.94781-23.5741,5.11646-35.01678,6.52972 L171.56296,763.18811z M208.90524,754.47571c13.34332-3.9494,26.52142-8.7179,39.53552-14.14948l-9.36401,34.78253 c-14.01184,5.38403-27.69287,9.80713-41.06732,13.26904L208.90524,754.47571z M251.94363,738.85315 c15.83807-6.7688,31.43109-14.50458,46.78253-22.91681l-7.43335,35.56787c-16.05353,8.25769-32.33154,15.80286-48.75122,22.27264 L251.94363,738.85315z M302.19107,714.02142c19.0127-10.56848,37.65228-22.14679,55.92096-34.19519l-4.94006,36.24689 c-19.01349,11.83063-38.54895,23.27014-58.44189,33.64856L302.19107,714.02142z M361.44016,677.62268 c23.0166-15.28638,45.44385-31.26172,67.28564-46.83026l-1.61011,36.79614c-1.00372,0.67487-2.00464,1.34784-3.01709,2.02869 c-21.51672,14.46948-44.16187,29.69257-67.61682,44.38672L361.44016,677.62268z M431.82523,628.58356 c10.466-7.45862,20.44733-14.56256,30.49554-21.58643c4.16064-2.9082,8.33496-5.83105,12.52344-8.76465 c12.86713-9.00977,25.82025-18.078,38.87814-27.08112l3.03662,37.57959c-17.70261,11.33612-35.23111,22.82373-52.61838,34.22223 l-3.79688,2.48926c-9.83447,6.44684-19.77466,13.10443-30.13422,20.06659L431.82523,628.58356z M516.57355,569.18872 c33.07196-22.74933,66.83337-45.01282,101.62738-64.77164l9.89362,38.68472 c-37.06714,19.30908-73.12598,41.21985-108.47388,63.79657L516.57355,569.18872z M516.29474,565.73853l-3.04846-37.72662 c30.60968-22.79605,61.88483-45.30759,94.24841-65.45712l9.93591,38.85028 C582.79266,521.03314,549.19708,543.13306,516.29474,565.73853z M512.96118,524.48431l-3.05057-37.7529 c27.85489-22.70612,56.7244-45.69727,86.75778-66.50836l10.04602,39.28082 C574.50702,479.50552,543.40033,501.84067,512.96118,524.48431z M509.6171,483.09915l-2.9718-36.77759 c25.98221-22.3385,52.57095-44.48584,80.06912-65.01929l9.15833,35.80988 C566.01489,437.7471,537.31512,460.54184,509.6171,483.09915z M506.34628,442.62106l-3.01874-37.35815 c23.6478-22.17737,47.84799-44.28296,72.87851-65.04919l9.70483,37.94678 C558.57635,398.51602,532.15601,420.46085,506.34628,442.62106z M578.76208,338.10086 c9.37994-7.72937,18.87042-15.2757,28.50055-22.54803c18.03973-13.62354,37.62903-27.33704,58.77637-38.87744 c6.71503,13.44055,13.41046,26.83862,20.07977,40.18311c-21.47589,9.61377-43.56488,22.06146-66.60321,37.48389 c-10.47638,7.01312-20.80096,14.33911-31.00336,21.88202L578.76208,338.10086z M605.45404,313.15878 c-9.29413,7.01874-18.45703,14.2876-27.51373,21.72882l-9.71332-37.97986c8.28467-7.70398,16.66492-15.27777,25.16553-22.64886 c15.9201-13.80475,33.00018-28.00917,51.28937-40.34407c6.68256,13.38452,13.35632,26.74635,20.01331,40.071 C643.36554,285.61752,623.62646,299.43533,605.45404,313.15878z M591.42767,271.99228 c-8.11981,7.04083-16.12799,14.26373-24.04706,21.60608l-9.69708-37.91621c7.77704-8.23608,15.63464-16.37183,23.58789-24.34613 c12.76196-12.79596,26.79669-26.86633,42.27563-39.77283c6.59607,13.22461,13.19238,26.44257,19.78217,39.64203 C624.80054,243.67183,607.52405,258.03476,591.42767,271.99228z M579.14642,229.21785 c-7.53033,7.55035-14.97205,15.24493-22.34149,23.02875l-9.68213-37.85779c6.25073-7.69421,12.54382-15.33893,18.88202-22.88531 l3.49707-4.16846c10.70264-12.76288,21.54962-25.69061,33.07648-37.83813c6.52338,13.09607,13.05664,26.20251,19.59192,39.30609 C606.38953,201.90779,592.11548,216.21407,579.14642,229.21785z M554.36688,254.82082 c-19.84222,21.06117-39.12811,42.77541-58.00058,64.29335l-2.97394-36.80341c0.7334-0.93903,1.47705-1.89038,2.20721-2.82532 c16.02295-20.51599,32.43674-41.5168,49.17105-62.18666L554.36688,254.82082z M493.6105,322.25681 c-4.18805,4.78052-8.35736,9.5498-12.50653,14.297c-6.93896,7.93896-13.87598,15.87549-20.83398,23.78711 c-4.68945,5.33105-9.37158,10.67578-14.05566,16.02344c-1.17371,1.33978-2.35284,2.68469-3.52905,4.02698l1.56519-35.77148 c3.99298-5.01813,7.97217-10.03058,11.93262-15.02356l6.42773-8.10107c9.38867-11.82574,18.82233-23.87646,28.05396-35.69293 L493.6105,322.25681z M439.52463,383.99783c-14.68262,16.74481-29.58502,33.63-44.91174,50.22552l4.71198-34.57349 c14.28308-16.83569,28.13727-33.96472,41.74811-51.03766L439.52463,383.99783z M391.06418,438.04495 c-12.87305,13.83813-26.05878,27.4411-39.67462,40.56476l6.94733-33.24237c12.8606-13.44611,25.28833-27.33234,37.38074-41.46625 L391.06418,438.04495z M347.55771,482.28061c-8.94977,8.51379-18.07916,16.82147-27.4425,24.82886 c-2.50238,2.13995-4.9978,4.24829-7.48993,6.34207l8.64185-32.10007c2.94287-2.57648,5.862-5.18207,8.71967-7.85529 c8.33899-7.80103,16.46863-15.84052,24.43323-24.05121L347.55771,482.28061z M308.61478,516.81018 c-10.56171,8.78796-21.0271,17.15015-31.39209,25.09778l10.82928-33.69498c9.77228-7.4989,19.62286-15.20471,29.16113-23.34119 L308.61478,516.81018z M273.0463,545.09698c-9.72687,7.37122-19.36139,14.3645-28.8985,20.98138l12.3175-33.44916 c7.89392-6.30756,15.92853-12.4472,23.76953-18.43384c1.2077-0.922,2.42328-1.85211,3.63611-2.77908L273.0463,545.09698z M239.86209,569.03387c-8.27423,5.65942-16.47119,11.02332-24.5907,16.10419c4.07074-9.44055,8.13129-18.94147,12.14703-28.49762 c3.7392-3.10223,7.45984-6.20087,11.15967-9.28394c3.12354-2.60254,6.24951-5.20703,9.38232-7.81055 c1.30157-1.08124,2.62878-2.14215,3.94379-3.21338L239.86209,569.03387z M210.80801,587.91003 c-7.15405,4.39862-14.24609,8.5722-21.27148,12.51331c3.84113-7.35291,7.6709-14.76355,11.44293-22.24402 c7.23853-5.74774,14.37805-11.57068,21.4375-17.3996C218.57175,569.87476,214.6926,578.92139,210.80801,587.91003z M208.74161,592.68494c-2.9715,6.85986-5.94165,13.68951-8.89545,20.47821c-0.099,0.22748-0.19904,0.45758-0.2981,0.68524 c-7.28308,3.29395-14.56787,6.33307-21.8609,9.12177c0.90411-1.71729,1.81024-3.4397,2.71075-5.1488 c2.19708-4.16974,4.40326-8.35748,6.60944-12.56342C194.18442,601.3064,201.43015,597.11481,208.74161,592.68494z M197.77902,617.91541c-3.16016,7.26465-6.34338,14.59058-9.52966,21.96796c-7.54883,2.38141-15.09204,4.45325-22.63617,6.21417 c3.31311-6.42926,6.6488-12.81238,9.97455-19.13928C182.99252,624.20105,190.3876,621.18762,197.77902,617.91541z M186.67911,643.52771c-3.88367,9.01141-7.75677,18.07837-11.57745,27.16296c-7.94836,1.68469-15.85431,2.97217-23.72595,3.86859 c4.04834-8.39581,8.22156-16.71863,12.44794-24.96735C171.4426,647.88123,179.05875,645.86401,186.67911,643.52771z M173.6915,674.052c-1.74792,4.1734-3.48761,8.34778-5.20471,12.52032l-6.52393,15.85303 c-8.23627,1.20563-16.41064,1.98859-24.53046,2.34149l5.81464-12.8537c2.14557-4.74298,4.36139-9.45972,6.60571-14.16235 C157.76389,676.91119,165.70755,675.67883,173.6915,674.052z M160.63351,705.65564l-11.55145,28.06995 c-8.47418,0.77112-16.8714,1.10583-25.19781,0.99036l12.15918-26.87872 C144.18509,707.53607,152.37955,706.80469,160.63351,705.65564z M127.1611,737.75201c6.82806,0,13.7027-0.29669,20.62744-0.8833 l-11.09509,26.961c-8.56384,0.35352-17.18848,0.29181-25.87524-0.23047l11.72333-25.9151 C124.08023,737.71405,125.61771,737.75201,127.1611,737.75201z M126.10788,767.08307c3.11499,0,6.2204-0.06476,9.31891-0.17542 l-12.66052,30.76489c-8.92694-0.21539-17.72266-0.92255-26.38849-2.15173l13.10846-28.97705 C115.0524,766.90552,120.59305,767.08307,126.10788,767.08307z M124.75443,800.72583c1.23584,0.0191,2.4704,0.04279,3.71136,0.04279 c8.73145,0,17.59314-0.48352,26.58789-1.43085l-11.15521,30.29279c-10.35101,0.63806-20.70007,0.65723-31.03003-0.02209 L124.75443,800.72583z M158.39243,798.9538c11.47559-1.35266,23.1723-3.46869,35.10828-6.35303l-10.20654,31.75751 c-12.02051,2.43414-24.06836,4.15533-36.11633,5.04962L158.39243,798.9538z M196.92361,791.75635 c13.41931-3.39417,27.14172-7.75146,41.18964-13.0686l-8.91223,33.10449c-14.10425,4.80182-28.2959,8.8244-42.52991,11.86432 L196.92361,791.75635z M241.57681,777.3606c0.67432-0.26178,1.34308-0.50745,2.01886-0.77362 c15.79913-6.22333,31.45856-13.43335,46.90833-21.30829l-7.19586,34.43195c-16.7066,7.85205-33.62769,14.93573-50.68268,20.89966 L241.57681,777.3606z M293.93777,753.51282c19.9873-10.33539,39.60913-21.75348,58.7088-33.58478l-4.86725,35.71289 c-19.91205,11.5166-40.32074,22.56268-61.07007,32.45966L293.93777,753.51282z M355.95413,717.87549 c24.24615-15.12469,47.62976-30.8476,69.81879-45.76898c0.39594-0.26624,0.78528-0.52802,1.17981-0.79333l-1.60962,36.78619 c-0.14905,0.09406-0.29547,0.1864-0.4447,0.28058c-23.55249,14.86432-48.27368,30.46606-73.8313,45.35291L355.95413,717.87549z M430.04654,669.23279c11.01819-7.40747,21.54004-14.46295,31.94171-21.28058l3.79736-2.48926 c16.93854-11.1048,34.01123-22.29431,51.2471-33.34454l3.0423,37.64996c-20.32993,12.15607-40.11392,24.336-59.2562,36.12134 c-10.51184,6.47223-21.18811,13.19452-32.38763,20.26105L430.04654,669.23279z M519.89441,610.28577 c35.51672-22.71259,71.74164-44.77063,108.96417-64.19641l9.89905,38.70605c-40.01752,19.27344-78.8053,41.19592-115.8111,63.26196 L519.89441,610.28577z M631.5918,544.66882c21.78961-11.28058,43.92065-21.64899,66.45502-30.69806 c25.41772-10.20657,50.22198-18.20822,74.51953-24.04532c6.66339,13.35974,13.32538,26.72318,19.97717,40.07645 c-25.50317,5.40295-51.57233,12.94714-78.31604,22.68372c-24.5874,8.95166-48.86102,19.39838-72.70953,30.79523L631.5918,544.66882z M775.56213,489.21005c63.03027-14.70233,122.64258-14.68646,180.57806-0.11597 c11.34113,14.97211,22.64795,29.89731,33.91022,44.7623c-61.98157-16.98523-126.18427-18.52765-194.47394-4.49469 C788.91254,515.9837,782.23798,502.595,775.56213,489.21005z M774.18225,486.44363 c-6.69269-13.4176-13.38538-26.82849-20.0708-40.21881c57.21112-15.32446,111.74988-17.17285,165.19727-5.76038 c11.35699,14.99707,22.67767,29.94397,33.96582,44.84644C895.77411,471.45895,836.63519,471.77164,774.18225,486.44363z M771.19293,487.17203c-24.22333,5.85791-48.94275,13.84741-74.26428,24.01556c-22.41992,9.0029-44.43152,19.3027-66.09943,30.49948 l-9.92316-38.80008c20.67163-11.64301,41.70752-22.39075,63.18469-31.80682c22.81311-10.00214,45.13873-18.00226,67.07208-24.04474 C757.83459,460.39816,764.51373,473.78171,771.19293,487.17203z M682.88568,468.33212 c-21.3349,9.354-42.22571,20.00824-62.74982,31.54309l-9.9693-38.98053c19.55334-12.07178,39.5058-23.26483,59.95349-33.1153 c20.19189-9.72729,40.00183-17.66162,59.513-23.8501c6.70697,13.42426,13.43024,26.88397,20.16449,40.37122 C727.90936,450.36331,705.6369,458.3577,682.88568,468.33212z M668.8183,425.07626 c-20.27472,9.76703-40.05182,20.84216-59.42999,32.77521l-10.08752-39.44287c34.5033-23.70581,70.53845-44.4505,108.33313-58.5025 c6.85333,13.71246,13.73755,27.48804,20.64105,41.30505C708.77576,407.42227,688.98425,415.36105,668.8183,425.07626z M598.50696,415.30466l-9.19135-35.93866c10.48615-7.77423,21.09778-15.32068,31.86792-22.53046 c22.93927-15.3559,44.91949-27.73987,66.27783-37.29059c3.48102,6.96509,6.95703,13.91974,10.42139,20.85114 c2.79169,5.58551,5.58948,11.18323,8.39215,16.79083C668.66547,371.21017,632.82275,391.79068,598.50696,415.30466z M700.56635,339.05478c-3.44421-6.89105-6.89978-13.80493-10.36047-20.72925c41.28809-18.03546,80.28253-25.3866,119.38153-22.82501 c11.33148,14.97998,22.64618,29.93506,33.93744,44.85602c-47.27356-6.60425-91.96594,0.37915-134.41296,15.7959 C706.25781,350.44199,703.40906,344.74228,700.56635,339.05478z M667.33942,272.56577 c-6.70001-13.41095-13.41718-26.8597-20.14307-40.33119c27.04846-17.87317,56.72522-31.4585,89.22089-33.50958 c11.45819,15.16248,22.90796,30.31024,34.34302,45.43469C732.87067,244.18379,698.43323,255.97993,667.33942,272.56577z M645.84546,229.52852c-6.63623-13.29254-13.27887-26.60358-19.92126-39.92114 c21.69489-17.74554,46.19147-32.99884,73.95471-39.24658c11.46979,15.18652,22.9339,30.36102,34.3894,45.52039 C702.02838,198.37263,672.63403,211.86812,645.84546,229.52852z M624.5484,186.84908 c-6.59381-13.22125-13.18518-26.44489-19.76654-39.6579c17.34296-17.98248,36.28882-34.07642,58.63348-45.12433 c11.49829,15.2337,22.99554,30.46143,34.48822,45.67859C670.34082,154.2466,646.05743,169.32802,624.5484,186.84908z M603.36273,144.34138c-6.474-12.9989-12.93573-25.98267-19.37994-38.94177c13.2865-17.90082,27.41315-35.36475,43.10266-51.48126 c11.49536,15.24005,22.99377,30.47919,34.49219,45.7135C639.38513,110.70387,620.56708,126.59895,603.36273,144.34138z M601.1543,146.63716c-11.85858,12.43219-22.9801,25.68719-33.95123,38.77014l-3.49512,4.1665 c-5.87531,6.99536-11.71185,14.07349-17.51068,21.19623l-9.63074-37.65704c5.26489-7.70496,10.55554-15.42419,15.82892-23.06506 c9.60907-13.92389,19.36169-28.04321,29.58563-41.93555C588.35706,120.93349,594.74963,133.77809,601.1543,146.63716z M543.84357,213.67366c-17.23712,21.24756-34.12845,42.86403-50.60825,63.96559c-0.0661,0.08459-0.13367,0.17102-0.19977,0.25568 l-2.96216-36.65804c9.68347-14.08368,19.26849-28.16296,28.68631-41.99951c5.11774-7.51886,10.32074-15.16101,15.55389-22.8266 L543.84357,213.67366z M490.30795,281.38632c-9.86328,12.62781-19.9834,25.56812-30.04675,38.24365l-6.42871,8.10205 c-3.10901,3.91949-6.23047,7.85162-9.35883,11.78784l1.55316-35.49652c5.47516-7.6554,10.98419-15.41516,16.55859-23.29913 c8.30737-11.74933,16.58246-23.65717,24.79419-35.5771L490.30795,281.38632z M396.47049,398.3768 c-11.97516,14.09674-24.25964,27.96973-36.9679,41.41284l6.85535-32.80237c11.86621-13.61438,23.36389-27.69238,34.69922-42.26428 L396.47049,398.3768z M355.57541,443.9166c-8.98682,9.37616-18.17834,18.53851-27.63843,27.38818 c-1.73254,1.62085-3.49048,3.21613-5.25769,4.80121l8.49347-31.54901c2.29211-2.21051,4.56299-4.44885,6.79645-6.73267 c8.34418-8.53217,16.43976-17.27423,24.3595-26.2218L355.57541,443.9166z M318.608,479.69046 c-9.40863,8.1994-19.18329,15.96625-28.93994,23.49396l9.91803-30.85956c9.25769-7.61591,18.5014-15.49036,27.41949-23.82715 L318.608,479.69046z M285.48141,506.40536c-2.36261,1.81134-4.72089,3.6142-7.06689,5.40527 c-6.58441,5.02713-13.29926,10.17477-19.9649,15.43002l11.25214-30.55612c5.40161-4.46783,10.82141-8.86658,16.13367-13.16589 c3.14307-2.54388,6.30713-5.11224,9.4751-7.69629L285.48141,506.40536z M253.93979,530.80469 c-2.65198,2.12457-5.28888,4.26837-7.89636,6.43463c-3.13428,2.60352-6.26123,5.20898-9.38574,7.8125 c-2.23663,1.86389-4.48273,3.73438-6.73334,5.60681c4.10449-9.84143,8.14709-19.73987,12.09631-29.68311 c5.69611-5.33234,11.47321-10.57144,17.35333-15.61606c1.89349-1.62451,3.80444-3.23547,5.71869-4.84119L253.93979,530.80469z M224.93613,554.8017c-6.84106,5.67303-13.75342,11.35437-20.75372,16.97955c4.29169-8.64124,8.48773-17.37567,12.51562-26.21674 c6.60278-6.56512,13.31165-13.17371,20.1355-19.68359C232.94107,535.56903,228.96286,545.21143,224.93613,554.8017z M210.57071,551.66492c-3.88007,8.27893-7.89294,16.46832-11.97754,24.57941c-6.1239,4.85608-12.31989,9.65039-18.59534,14.34467 c4.13635-6.76093,8.18097-13.62653,12.05701-20.63123C198.32352,563.86243,204.49606,557.71759,210.57071,551.66492z M158.11325,609.86041c3.737-2.51483,7.43951-5.08429,11.11377-7.69434c-2.85272,4.48273-5.7229,8.92883-8.58942,13.34485 c-4.19818,2.02576-8.37256,3.97223-12.51727,5.82214c3.31696-3.90924,6.51215-7.91412,9.60309-12.05182L158.11325,609.86041z M175.74789,597.46228c6.63147-4.84473,13.16895-9.81311,19.6225-14.8609c-3.50848,6.87628-7.05475,13.69904-10.6048,20.47089 c-6.35339,3.48474-12.64893,6.76923-18.89026,9.87268C169.18143,607.83148,172.48422,602.6756,175.74789,597.46228z M171.397,628.49176c-3.20502,6.10803-6.41083,12.26489-9.59589,18.46796c-6.72046,1.47595-13.44287,2.7157-20.17218,3.7041 c3.27899-5.27362,6.60187-10.49017,9.93292-15.65631C158.18576,633.03955,164.79568,630.86255,171.397,628.49176z M124.96951,679.10669c7.10992-0.01422,14.23981-0.3548,21.39459-1.01056c-1.98334,4.17883-3.94489,8.36835-5.85046,12.58069 l-6.42676,14.20685c-7.35382,0.21405-14.66479,0.07819-21.93866-0.40649l5.86639-11.93414 C120.24277,688.01001,122.56888,683.53357,124.96951,679.10669z M119.28244,737.60992l-11.65869,25.77222 c-7.64594-0.55762-15.33752-1.45697-23.07843-2.75189l12.22601-24.87152 C104.22556,736.73291,111.72574,737.35883,119.28244,737.60992z M106.29898,766.31067l-12.99921,28.73566 c-7.84906-1.2265-15.5957-2.87152-23.24646-4.93469l13.11041-26.67072C90.92471,764.7691,98.63596,765.71576,106.29898,766.31067z M67.10245,789.31323c-6.96228-1.98169-13.84247-4.32745-20.65289-7.00598c4.26501-8.04944,8.52783-16.09973,12.79315-24.14917 c6.98767,1.89154,13.9364,3.46765,20.84576,4.73749L67.10245,789.31323z M65.7626,792.039l-12.42798,25.28253 c-6.96661-2.49902-13.9082-5.39783-20.81995-8.70984c4.17334-7.87762,8.34595-15.7558,12.51978-23.63324 C51.87064,787.67865,58.77835,790.03168,65.7626,792.039z M52.01041,820.01532l-12.28345,24.9884 c-7.27618-2.73779-14.46301-5.83923-21.56885-9.29169c4.31769-8.15216,8.63684-16.30365,12.95532-24.45538 C38.05368,814.58673,45.02115,817.49371,52.01041,820.01532z M54.85251,821.03497c7.86102,2.71478,15.7489,4.94025,23.6568,6.70673 l-11.63049,25.71002c-8.21765-2.04126-16.32117-4.51257-24.3183-7.41089L54.85251,821.03497z M65.62289,856.22797 l-12.22876,27.03259c-8.36761-2.55261-16.59637-5.56091-24.69495-9.02136l12.52582-25.48157 C49.24905,851.67902,57.38168,854.16022,65.62289,856.22797z M68.58322,856.96271 c9.10907,2.16553,18.35748,3.80737,27.75159,4.93787l-11.7923,28.65515c-9.58978-1.59619-18.99713-3.75317-28.23956-6.44666 L68.58322,856.96271z M99.43161,862.25983c9.2691,1,18.67792,1.51367,28.24414,1.51367c1.21741,0,2.4422-0.02405,3.66455-0.04028 l-11.12421,30.20874c-11.1051-0.29736-21.97424-1.27124-32.62537-2.90894L99.43161,862.25983z M100.62723,859.35455 L111.66,832.54492c5.59473,0.39362,11.19409,0.60162,16.79651,0.60162c4.7652,0,9.53192-0.1416,14.29846-0.41077l-10.29932,27.96863 C121.65256,860.89191,111.04739,860.44171,100.62723,859.35455z M146.03085,832.52258 c12.07947-0.83331,24.15552-2.48596,36.2016-4.8609l-9.49493,29.54321c-12.61389,1.93579-24.96259,3.08459-37.06073,3.43494 L146.03085,832.52258z M231.67612,814.13666c17.11798-5.90051,34.09808-12.93121,50.86212-20.74219l-6.9552,33.27997 c-15.38721,6.48315-30.89563,12.30371-46.44684,17.19574c-1.99255,0.62683-3.97375,1.22302-5.95343,1.81494L231.67612,814.13666z M285.9368,791.79675c20.83801-9.85565,41.33228-20.87842,61.32996-32.39496l-4.78857,35.13538 c-20.78143,11.03241-42.03015,21.4989-63.53064,30.7027L285.9368,791.79675z M341.97922,798.19806l-4.7688,34.99048l1.17072,0.15924 c-22.07605,10.92694-44.62964,21.20441-67.41364,30.07611l7.23163-34.60284 C299.78775,819.66235,321.11838,809.22284,341.97922,798.19806z M345.24283,796.46783 c27.02899-14.3949,53.24237-29.70117,78.1756-44.38196l-1.61407,36.88635c-26.0141,14.42535-53.33722,29.41492-81.45465,43.39825 L345.24283,796.46783z M345.74246,792.80164l4.8111-35.3006c25.83441-14.98578,50.82123-30.72791,74.62988-45.75323 l-1.6087,36.76465C398.76004,763.1286,372.65561,778.40588,345.74246,792.80164z M428.27151,709.79919 c11.83643-7.4693,23.07294-14.55304,34.12054-21.3548c18.73206-11.53302,38.08167-23.4444,57.95248-35.34003l3.05212,37.77142 c-21.53085,12.0415-42.60245,24.19684-63.00119,36.03149c-10.21143,5.9248-20.37939,11.91699-31.14453,18.26074 c-0.86108,0.50745-1.72961,1.0191-2.59393,1.52838L428.27151,709.79919z M523.21576,651.38934 c37.15625-22.18292,76.11688-44.24298,116.30084-63.62628l9.9314,38.8324c-17.92957,8.00043-36.47351,16.86011-55.77911,26.64679 c-22.79449,11.55573-45.33044,23.71954-67.39252,36.02332L523.21576,651.38934z M642.27563,586.44348 c23.94141-11.45886,48.30664-21.9563,72.97821-30.93854c26.87579-9.78503,53.06274-17.34381,78.67206-22.72729 c6.70776,13.46692,13.40234,26.91827,20.0788,40.34399c-26.27185,4.86145-53.12183,11.78198-80.65027,20.7915 c-25.87714,8.46906-52.73669,18.88428-81.12402,31.4541L642.27563,586.44348z M796.95856,532.13708 c68.91888-14.04626,133.62659-12.12567,196.06738,5.64673c11.20233,14.78564,22.35895,29.50964,33.47394,44.17767 c-66.61279-19.4397-135.7348-22.59375-209.41846-9.39075C810.39056,559.1156,803.68121,545.63416,796.95856,532.13708z M752.74054,443.47879c-6.75049-13.52002-13.4903-27.01306-20.21368-40.47015 c51.67358-15.95245,101.25128-19.49646,150.17737-10.88873c11.31299,14.94373,22.6004,29.85144,33.8548,44.71338 C863.52301,426.06821,809.42438,428.20627,752.74054,443.47879z M731.16791,400.28867 c-6.92139-13.85291-13.8233-27.66382-20.69446-41.41193c42.84552-15.51221,87.94476-22.34991,135.62317-15.1217 c11.34698,14.9942,22.66864,29.9519,33.96619,44.87561C831.52722,380.61142,782.35547,384.41336,731.16791,400.28867z M590.99017,6.04842c11.41534,15.14496,22.83893,30.2948,34.26587,45.44464c-15.57452,15.95856-29.59174,33.21356-42.76947,50.89764 c-6.41699-12.90613-12.81573-25.78601-19.18555-38.62146C573.05859,44.38429,582.27759,25.16695,590.99017,6.04842z M580.47778,105.08943c-10.58051,14.32245-20.64001,28.89301-30.55109,43.25439c-4.7804,6.92682-9.57257,13.91742-14.349,20.90277 l-9.19385-35.94843c12.46704-22.34692,24.19019-44.37512,35.22748-66.18506 C567.87634,79.73604,574.16791,92.39949,580.47778,105.08943z M533.32367,172.54012 c-5.73761,8.39941-11.4397,16.77588-17.04395,25.00928c-8.73752,12.83704-17.61996,25.88409-26.58932,38.94745l-2.85419-35.32159 c13.16522-21.70306,25.62125-43.034,37.42252-64.07971L533.32367,172.54012z M462.9487,239.74129 c7.27435-11.51135,14.34424-22.90582,21.23035-34.20264l2.81818,34.87579c-8.88922,12.92316-17.85809,25.84468-26.86102,38.57784 c-4.66333,6.5954-9.2782,13.09863-13.86877,19.53345l1.53052-34.97906C452.91458,255.57307,457.9664,247.6255,462.9487,239.74129z M401.86972,358.76102c-11.21875,14.54486-22.56268,28.62073-34.25507,42.21301l6.80627-32.56775 c11.07776-14.02881,21.71942-28.41278,31.9917-42.97827L401.86972,358.76102z M345.94382,402.43369 c8.34735-9.34955,16.44098-18.9599,24.31189-28.76129l-6.67401,31.93469c-9.00385,10.31036-18.21356,20.36102-27.75702,30.11957 c-1.02216,1.04517-2.07068,2.05981-3.10638,3.08948l8.35138-31.02124C342.71378,406.01169,344.34335,404.22623,345.94382,402.43369z M336.70804,412.45792l-8.2113,30.50092c-8.78882,8.43597-17.96613,16.38104-27.20337,24.05377l9.31018-28.9682 C320.09061,429.3494,328.69345,420.9122,336.70804,412.45792z M296.99832,470.57089 c-4.3623,3.58325-8.72449,7.11462-13.05011,10.61572c-4.01794,3.25171-8.10046,6.56024-12.18903,9.91083l10.46021-28.40546 c8.61139-7.13062,16.53467-13.95563,23.93457-20.60864L296.99832,470.57089z M270.85544,471.96494 c2.30884-1.85779,4.55902-3.68744,6.7782-5.50262l-10.46838,28.42767c-3.26477,2.70496-6.52399,5.42938-9.74438,8.19214 c-4.33783,3.72156-8.61804,7.54474-12.84985,11.43021c3.81854-9.74277,7.53711-19.52695,11.1131-29.34738 C260.60257,480.58292,265.64499,476.15714,270.85544,471.96494z M250.77335,489.83145 c-3.64136,9.84015-7.41779,19.64453-11.29028,29.40659c-6.57123,6.16345-13.02441,12.44727-19.37933,18.72711 c3.95123-8.96082,7.71332-18.03192,11.20679-27.22971l-0.48761-0.18506C237.27768,503.4534,243.9025,496.49551,250.77335,489.83145z M186.65329,561.16705c5.19897-5.82336,10.39685-11.82971,15.49579-17.76044c-3.86365,8.44623-8.06976,16.67059-12.51025,24.71393 c-4.42902,4.3028-8.90442,8.57361-13.4212,12.7663C179.76755,574.66504,183.23221,568.1236,186.65329,561.16705z M137.24509,633.35748c2.22235-2.30756,4.38104-4.64331,6.49603-7.00647l0.06451,0.15002 c4.53479-1.94971,9.10559-4.0163,13.70496-6.17786c-0.211,0.32446-0.42279,0.65057-0.63367,0.97473 c-2.401,3.69116-4.81549,7.40558-7.22845,11.14288c-5.16248,1.51678-10.33276,2.9165-15.51385,4.18927 C135.15439,635.54498,136.18741,634.45569,137.24509,633.35748z M130.47818,640.58002 c5.58032-1.29639,11.14758-2.73242,16.70447-4.30804c-3.16272,4.92743-6.31403,9.89886-9.41956,14.92853 c-5.98364,0.79584-11.97345,1.40472-17.97321,1.81879C123.11917,648.90106,126.65878,644.77649,130.47818,640.58002z M95.18649,690.32037c2.24237-4.23212,4.55762-8.30518,6.97089-12.2804c6.46466,0.61237,12.93658,0.95477,19.42645,1.03455 c-2.15222,4.00513-4.24847,8.04895-6.2616,12.14429l-6.40723,13.03436c-6.62524-0.53638-13.2196-1.37695-19.79047-2.49237 L95.18649,690.32037z M66.29391,744.84772l7.078-13.35797c6.7196,1.58215,13.47211,2.86633,20.26306,3.84784l-12.1618,24.74103 c-6.89093-1.24078-13.81891-2.7832-20.78491-4.64929C62.55722,751.90228,64.42496,748.37482,66.29391,744.84772z M16.75369,838.3631 c7.13318,3.46936,14.3493,6.5752,21.64984,9.33301l-12.45294,25.33325c-7.37-3.25488-14.63751-6.86841-21.79681-10.88184 C8.35196,854.21844,12.55453,846.29156,16.75369,838.3631z M123.39163,894.00104l11.16553-30.3208 c12.13141-0.30042,24.50909-1.39111,37.15149-3.27393l-10.18561,31.69214 C148.50607,893.56781,135.80624,894.19037,123.39163,894.00104z M221.52097,880.10944 c-2.74744,0.77075-5.47986,1.50488-8.20123,2.21191l8.94611-33.23022c2.58057-0.75952,5.16864-1.54004,7.77075-2.35864 c15.00378-4.71997,29.96008-10.29785,44.80157-16.49365l-6.99493,33.47021l1.56555,0.3269 C253.52609,870.17255,237.53531,875.61676,221.52097,880.10944z M460.80515,767.39264 c-9.69727,5.31152-19.35596,10.6748-29.58154,16.35254c-2.10437,1.16846-4.21918,2.34259-6.34174,3.52045l1.61877-36.99481 c1.42725-0.84082,2.85468-1.68188,4.27325-2.51782c10.76074-6.3418,20.92432-12.33105,31.12744-18.25 c20.65454-11.9834,41.22339-23.81329,61.76407-35.30139l3.04553,37.68976 C505.79385,742.89197,484.10379,754.63147,460.80515,767.39264z M752.81537,635.00299 c-45.9873,13.58105-94.76367,32.65234-149.11719,58.30566c-24.59698,11.60846-48.81061,23.80762-74.09967,37.06964 l-3.05322-37.78442c41.17126-22.96362,82.23993-44.49896,123.6618-63.03021l9.71667,37.99304l2.90625-0.74414l-9.84229-38.48419 c26.90497-11.94409,53.96234-22.61664,81.30029-31.56366c27.69598-9.06458,54.69714-15.99884,81.10925-20.84265 c6.66095,13.39624,13.30286,26.76501,19.91309,40.08551C808.44574,620.35504,780.97675,626.68634,752.81537,635.00299z M838.4234,615.53082c-6.62195-13.34454-13.27643-26.73883-19.94958-40.16003 c74.33502-13.19409,143.98169-9.6424,211.07086,10.60883c11.28369,14.89056,22.52551,29.72516,33.70923,44.48236 C992.06476,608.07739,917.87915,603.10565,838.4234,615.53082z" fill="#bdf347"/></g></svg>