<?xml version="1.0" encoding="UTF-8" standalone="no"?><svg xmlns="http://www.w3.org/2000/svg" xmlns:xlink="http://www.w3.org/1999/xlink" fill="#000000" height="1095.5" preserveAspectRatio="xMidYMid meet" version="1" viewBox="-0.0 -13.4 958.4 1095.5" width="958.4" zoomAndPan="magnify"><g id="change1_1"><path d="M826.35132,52.41369C761.737,0.11385,680.19189-13.37196,590.5166,13.42152 c-0.0022,0-0.00336,0.00111-0.00555,0.00223c-0.00336,0-0.00671,0.00111-0.01001,0.00223l-1.62341,0.50327 c-1.69128,0.5144-3.38037,1.02881-5.0705,1.5677l-274.04974,84.83414l-88.61313,27.43036l-2.49184,0.74377l0.05232,0.06569 C111.28477,162.35782,14.95005,303.5647,1.6112,446.47067l-0.07905-0.1091l-0.22937,2.85483l-0.15365,1.91507l-0.05344,0.65472 l-0.07794,0.97089l0.02227,0.00336c-0.30285,3.97046-0.52442,7.90308-0.69366,11.81009 c-0.04788,1.11566-0.09464,2.22797-0.13138,3.33694c-0.14363,4.26108-0.23048,8.49432-0.21266,12.673 c0.00223,0.88742,0.03563,1.75589,0.04565,2.63882c0.04008,3.30798,0.1325,6.58813,0.27279,9.83936 c0.06235,1.48975,0.12582,2.97839,0.21044,4.4548c0.2071,3.60416,0.46207,7.18048,0.79387,10.70892 c0.16701,1.78928,0.38302,3.54181,0.58232,5.30997c0.2238,1.98187,0.46319,3.95483,0.72818,5.91113 c0.27724,2.06763,0.55671,4.1308,0.87849,6.1662c0.16145,1.021,0.3563,2.01862,0.52999,3.03296 c0.74154,4.36353,1.58329,8.64685,2.52748,12.85223c0.17815,0.78613,0.35852,1.56995,0.54224,2.35046 c1.86165,7.91089,4.08182,15.52002,6.65495,22.81409c0,0.0011,0.00111,0.0011,0.00111,0.0011 c2.74014,7.76837,5.87778,15.16266,9.40511,22.16388l167.0751,333.42871c0.23048,0.50104,0.45763,1.00653,0.69034,1.50317 c0.87404,1.86829,1.78815,3.69434,2.68892,5.53595c0.81169,1.66119,1.60556,3.34247,2.4384,4.98145 c0.92749,1.82599,1.89728,3.60303,2.85037,5.40009c0.85399,1.60779,1.68907,3.23566,2.56422,4.82117 c0.97647,1.77032,1.99637,3.4939,2.99844,5.23529c0.90077,1.56104,1.78148,3.14655,2.7034,4.68756 c1.02658,1.71466,2.09547,3.38483,3.14877,5.07275c0.94418,1.50983,1.86722,3.04413,2.83144,4.53168 c1.08781,1.67902,2.21906,3.30908,3.3336,4.95917c0.97536,1.44299,1.92957,2.90826,2.92609,4.32898 c1.15128,1.64343,2.34821,3.23566,3.52621,4.84564c1.00542,1.37396,1.98857,2.77246,3.01404,4.12415 c1.20473,1.58777,2.45511,3.12427,3.68655,4.68085c1.0444,1.3183,2.06764,2.66333,3.13095,3.95935 c1.17355,1.42963,2.38831,2.80579,3.58524,4.20648c0.61461,0.72375,1.2281,1.44971,1.84828,2.16675 c0.55672,0.6369,1.09561,1.30048,1.65678,1.93292c0.60349,0.67694,1.23145,1.32495,1.8405,1.9975 c1.44856,1.60553,2.91383,3.18658,4.39023,4.74542c0.37857,0.39856,0.74489,0.815,1.12679,1.21136 c0.22269,0.23383,0.45428,0.45428,0.67697,0.68591c12.07509,12.51044,25.04652,23.47095,38.80956,32.85266 c0.43423,0.29626,0.8685,0.5946,1.30383,0.88855c1.87836,1.2627,3.77228,2.48962,5.67847,3.69214 c1.09338,0.69482,2.18344,1.39404,3.28461,2.06873c0.65137,0.39636,1.31052,0.77271,1.96521,1.16016 c36.37338,21.79871,77.07022,32.85059,120.85568,32.84607c27.49493,0,56.21021-4.35791,85.80283-13.09167l0.01337,0.01562 l1.14905-0.3429l2.50745-0.74829l-0.02673-0.03333c217.02338-66.57397,412.04663-353.74768,436.08435-642.47009l0.01782,0.00336 l0.15369-1.9151l0.13135-1.62561l-0.01666-0.00223C958.37805,258.47986,914.95667,124.13168,826.35132,52.41369z M823.4364,55.69162 c2.74121,2.21795,5.43793,4.49824,8.09015,6.83755c0.97644,0.86068,1.9151,1.77035,2.87933,2.64661 c1.65338,1.50423,3.31909,2.99066,4.93689,4.54055c1.18805,1.13792,2.33264,2.33151,3.50171,3.49504 c1.35504,1.34947,2.73126,2.67334,4.06067,4.05733c1.20032,1.24926,2.35828,2.55309,3.53851,3.82907 c1.24927,1.3517,2.51855,2.67667,3.74329,4.05732c1.2749,1.43632,2.50299,2.92831,3.75116,4.39692 c1.08673,1.27933,2.19678,2.5297,3.26459,3.83241c1.24146,1.51537,2.43616,3.0853,3.64978,4.63185 c1.03217,1.31384,2.08545,2.59985,3.09753,3.93596c1.24371,1.64453,2.44177,3.34362,3.65649,5.02155 c0.9342,1.29046,1.89062,2.55309,2.80695,3.86359c1.22253,1.74808,2.39832,3.55071,3.58972,5.33443 c0.86621,1.29713,1.75696,2.56644,2.60651,3.8814c1.16797,1.80709,2.28699,3.66651,3.42377,5.50812 c0.82843,1.34279,1.68018,2.65885,2.49188,4.02058c1.12012,1.87613,2.19122,3.80569,3.27905,5.71744 c0.78381,1.37621,1.58997,2.72679,2.35712,4.12079c1.06665,1.93959,2.08655,3.93152,3.12201,5.90451 c0.74158,1.41516,1.50647,2.80472,2.23132,4.23546c1.02325,2.02087,1.9986,4.09073,2.98956,6.145 c0.69031,1.43187,1.40399,2.83923,2.07764,4.2878c0.98425,2.1133,1.91956,4.27556,2.86932,6.42447 c0.63464,1.43521,1.29266,2.84703,1.91174,4.29784c0.17255,0.40527,0.33179,0.82393,0.50323,1.23033l-524.06836,34.79344 l-2.80362-5.59386c-0.06903-0.15143-0.13361-0.30952-0.20486-0.46095c-0.02451-0.05568-0.05121-0.10912-0.07684-0.16479 c-0.95642-2.04314-2.01083-3.98605-3.03073-5.96573c-0.73819-1.43298-1.42517-2.9194-2.19568-4.31787 c-0.0256-0.04453-0.05011-0.08795-0.07458-0.13249c-0.82617-1.49644-1.73807-2.90047-2.60208-4.35684 c-0.34628-0.58566-0.69479-1.16687-1.0455-1.74474c-0.72818-1.19136-1.40405-2.43951-2.15671-3.60193 c-0.02228-0.03452-0.04565-0.06903-0.06793-0.10355c-0.65692-1.01433-1.38174-1.95073-2.05872-2.94278 c-0.98093-1.44746-1.97635-2.87265-2.99179-4.26555c-0.11356-0.15475-0.21823-0.31955-0.33179-0.47321 c0.61905-0.69255,1.23923-1.38399,1.86053-2.0732c1.73471-1.92288,3.47388-3.83687,5.22308-5.73415 c1.07892-1.17131,2.16339-2.33374,3.24786-3.49504c1.7514-1.87389,3.50839-3.73888,5.27319-5.58606 c1.10449-1.15685,2.2146-2.30478,3.32468-3.4505c1.76477-1.82156,3.5329-3.6331,5.31104-5.42683 c1.12344-1.13347,2.24911-2.25803,3.37701-3.38037c1.77814-1.76923,3.56186-3.52844,5.35223-5.26984 c1.15018-1.11787,2.30258-2.22797,3.45721-3.33472c1.78369-1.70911,3.57187-3.40707,5.3667-5.08946 c1.17578-1.10118,2.35489-2.19345,3.53513-3.28349c1.79706-1.65789,3.59747-3.30242,5.40567-4.93248 c1.18582-1.06889,2.37494-2.12998,3.56522-3.18662c1.81821-1.61336,3.6409-3.21335,5.46915-4.79775 c0.15585-0.13473,0.31174-0.26722,0.46762-0.40083l359.41385-83.45238C797.61829,36.89699,810.86694,45.51602,823.4364,55.69162z M89.51952,654.24371c2.18008,0.93976,4.38467,1.81378,6.61597,2.61438c0.34071,0.12244,0.67808,0.25714,1.0199,0.37628 c2.79247,0.97205,5.62726,1.81934,8.49432,2.57428c0.48991,0.12915,0.98093,0.25385,1.47307,0.37744 c2.89156,0.7204,5.81431,1.34723,8.77713,1.84827c0.32401,0.05566,0.65247,0.09576,0.97648,0.14813 c2.99957,0.48206,6.03031,0.86285,9.0978,1.12122c0.15254,0.01331,0.30285,0.03339,0.45539,0.04565 c3.09198,0.24829,6.22404,0.35736,9.38062,0.37744c0.28281,0.0022,0.55783,0.03339,0.84064,0.03339 c0.2238,0,0.45427-0.02563,0.67807-0.02673c3.09309-0.01556,6.21404-0.1358,9.36504-0.37079 c0.51216-0.03784,1.02768-0.09015,1.54097-0.1347c1.06889-0.09131,2.13222-0.16254,3.20778-0.27948 c-0.14252,1.90729-0.24161,3.79346-0.36855,5.69293c-0.12135,1.81268-0.26944,3.64093-0.37744,5.4458 c-0.03229,0.55334-0.05122,1.10004-0.0824,1.65344c-0.15143,2.65442-0.26723,5.28876-0.38858,7.92761 c-0.08908,1.95068-0.20042,3.91254-0.27391,5.85437c-0.01558,0.42529-0.02226,0.84509-0.03786,1.26929 c-0.09241,2.59766-0.1492,5.17407-0.21155,7.75616c-0.05234,2.11658-0.12025,4.24213-0.15143,6.3465 c-0.00446,0.22601-0.00446,0.44983-0.00668,0.67584c-0.03674,2.56647-0.03674,5.11176-0.04341,7.6615 c-0.00668,2.28137-0.02228,4.56726-0.00446,6.83533c0.01892,2.56085,0.0746,5.09949,0.12358,7.64142 c0.04454,2.26917,0.07794,4.54388,0.14586,6.79749c0.07571,2.51636,0.18817,5.00928,0.29283,7.50781 c0.09465,2.24469,0.17815,4.49603,0.29617,6.7262c0.13139,2.47626,0.2984,4.92804,0.45874,7.38538 c0.14474,2.22015,0.27835,4.44592,0.44759,6.64935c0.08463,1.11902,0.17703,2.23358,0.26834,3.34808l-64.06429-112.7533 c0.15365,0.06903,0.31175,0.12695,0.46541,0.19598C88.45731,653.79834,88.98952,654.01996,89.51952,654.24371z M88.46955,649.78668 l48.257-11.2066l14.79742,20.37903c-22.14159,2.47626-42.95263-0.45984-61.59138-8.49432 C89.44046,650.24988,88.95835,650.0094,88.46955,649.78668z M140.84288,637.62366l13.28651-3.08533 c-0.02005,0.18146-0.0334,0.36407-0.05345,0.54669c-0.62686,5.56714-1.18468,11.13647-1.68573,16.70807 c-0.04453,0.50549-0.11246,1.01099-0.15698,1.51648L140.84288,637.62366z M138.33545,634.172l-18.55747-25.55646l-25.88047-35.63965 l70.6658-4.69421c-0.67809,3.37482-1.35059,6.74963-1.98524,10.12994c-0.16701,0.88855-0.31844,1.7793-0.481,2.66779 c-0.03897,0.21045-0.07571,0.4209-0.11469,0.63135c-0.22824,1.24365-0.45093,2.48737-0.67361,3.73218 c-1.08115,6.06146-2.11551,12.12964-3.05412,18.20673c-0.02673,0.17371-0.05791,0.34631-0.08463,0.52112 c-0.15254,0.98871-0.28169,1.97968-0.43089,2.96948c-0.16702,1.11786-0.32289,2.23578-0.48546,3.35474 c-0.80612,5.54376-1.55545,11.09198-2.23911,16.64459c-0.108,0.87518-0.22824,1.74921-0.3329,2.62439 c-0.02451,0.21045-0.05457,0.41974-0.07906,0.62909L138.33545,634.172z M348.85867,184.60963l-15.0513-26.49286l10.57977-1.92957 c0.77493,0.72595,1.57883,1.39957,2.34042,2.15002c0.9375,0.92192,1.83047,1.90173,2.7446,2.85594 c1.69797,1.77925,3.38593,3.57632,5.00931,5.48027c0.6391,0.746,1.24701,1.5265,1.87277,2.28922 c0.97534,1.1947,1.90619,2.45844,2.8526,3.69991c-2.23578,2.52525-4.46707,5.06052-6.67944,7.62808 c-0.47433,0.55115-0.95087,1.09561-1.42407,1.64787c-0.65024,0.75935-1.28601,1.5421-1.93515,2.30479 C349.06577,184.36578,348.96109,184.48715,348.85867,184.60963z M395.98108,275.53754 c0.04453,0.4476,0.10355,0.88519,0.14584,1.33389c0.31509,3.42603,0.56451,6.89658,0.7627,10.39941 c0.08685,1.52094,0.15033,3.05524,0.216,4.58954c0.12915,3.13986,0.22046,6.30643,0.2572,9.50641 c0.01114,0.90857,0.04343,1.80487,0.04678,2.71677c0.01224,4.09518-0.07126,8.24603-0.21268,12.4303 c-0.03784,1.11786-0.08463,2.2402-0.13361,3.36255c-0.19153,4.36685-0.43201,8.75931-0.79053,13.21414 c-0.30176,3.73663-0.69479,7.47107-1.11121,11.20438l-83.84875-105.45366c1.15796-1.62338,2.31146-3.25232,3.47833-4.86456 c0.95422-1.31718,1.9162-2.62434,2.87598-3.93262c1.59888-2.18008,3.20221-4.35461,4.81891-6.51242 c0.97314-1.29826,1.95184-2.58539,2.93054-3.87584c1.6178-2.13222,3.24008-4.25774,4.87457-6.36658 c1.00098-1.29045,2.00864-2.57201,3.01517-3.85356c1.63785-2.08545,3.28015-4.16533,4.93359-6.22739 c1.01654-1.2682,2.03979-2.52637,3.06302-3.78455c1.66345-2.04646,3.33026-4.08627,5.00821-6.10825 c0.58566-0.70592,1.17688-1.40292,1.76477-2.1066L395.98108,275.53754z M356.74615,163.37437 c-0.20151-0.22937-0.383-0.48212-0.58563-0.70926c-0.01672-0.01892-0.03342-0.03674-0.04901-0.05566 c-0.17145-0.19151-0.35852-0.36298-0.53-0.55449c-2.0921-2.34042-4.2399-4.58954-6.44562-6.73399l31.41754-5.73192 c-4.08292,4.21654-8.12689,8.50879-12.13632,12.86563c-0.60461,0.65581-1.21475,1.29825-1.81601,1.95628 c-0.60458,0.66138-1.19583,1.3439-1.79819,2.00751c-0.96533,1.06555-1.9418,2.11217-2.90381,3.18552 C360.23007,167.45062,358.50092,165.39078,356.74615,163.37437z M345.59967,151.98959 c-4.56061-4.11188-9.34833-7.80734-14.3309-11.10977c-0.24051-0.16144-0.48547-0.31398-0.72708-0.47321 c-1.20694-0.78719-2.42059-1.55768-3.65091-2.297c-0.73709-0.44759-1.48087-0.87515-2.22574-1.30382 c-0.19598-0.11134-0.38858-0.23048-0.58456-0.34183l92.60587-21.50136c-0.45874,0.4064-0.92081,0.79944-1.37842,1.20695 c-0.18484,0.16367-0.36966,0.32623-0.55338,0.49102c-4.67752,4.18092-9.30713,8.48319-13.90781,12.84782 c-0.7048,0.66917-1.41962,1.31384-2.12329,1.98747c-0.35519,0.3407-0.70703,0.68921-1.06332,1.03102 c-4.1553,3.99609-8.27386,8.0768-12.36237,12.21873L345.59967,151.98959z M330.84567,145.06631 c0.01111,0.00778,0.02225,0.01558,0.03339,0.02338c2.66443,1.85162,5.24869,3.86359,7.78619,5.95906 c0.70703,0.58566,1.37619,1.22588,2.07208,1.82713l-8.97644,1.63896l-7.83963-13.7998 C326.25833,142.10349,328.5932,143.50195,330.84567,145.06631z M346.14191,187.80627 c-3.04187,3.62755-6.06485,7.28625-9.05661,10.99286c-0.36188,0.44759-0.7215,0.89853-1.08115,1.34724 c-0.599,0.74487-1.18579,1.50868-1.78259,2.25803c-3.62976,4.55057-7.22055,9.15793-10.77127,13.82095 c-0.69589,0.91301-1.39957,1.81265-2.09213,2.73012c-0.02451,0.0334-0.05011,0.06458-0.07458,0.09798 c-0.3541,0.46875-0.7037,0.94197-1.05777,1.41295c-3.65536,4.86789-7.2562,9.80817-10.82361,14.79185 c-0.1481,0.20598-0.30286,0.40529-0.45093,0.61349l-50.84348-63.94516l71.59439-13.06049L346.14191,187.80627z M308.98355,242.11584 l85.53113,107.57141c-0.05231,0.41641-0.11469,0.83173-0.16812,1.24704c-0.38971,3.01071-0.76379,6.02362-1.22476,9.02988 c-0.2728,1.77927-0.61127,3.55182-0.90857,5.32776c-0.44983,2.68781-0.87625,5.37894-1.38174,8.06009 c-0.34851,1.84381-0.76047,3.67764-1.13458,5.51813c-0.52887,2.60431-1.03326,5.21194-1.61447,7.80734 c-0.42087,1.88614-0.90634,3.76114-1.35504,5.64285c-0.60349,2.53302-1.18356,5.07053-1.83603,7.59244 c-0.4632,1.7926-0.98428,3.57077-1.47195,5.35782l-117.85724-94.8071c0.61572-1.07892,1.237-2.15338,1.85608-3.22894 c1.37955-2.39163,2.76019-4.78329,4.15863-7.1571c0.854-1.44968,1.71802-2.88821,2.57983-4.33011 c1.4118-2.36603,2.82587-4.72873,4.25772-7.07584c0.8707-1.4274,1.75253-2.84369,2.62991-4.2644 c1.44412-2.33597,2.89047-4.66748,4.35349-6.98453c0.88629-1.40292,1.78262-2.79581,2.6767-4.19205 c1.48306-2.31815,2.96951-4.63297,4.47263-6.93106c0.89407-1.36841,1.79819-2.72568,2.69894-4.08627 c1.51538-2.28922,3.03632-4.57507,4.57062-6.84424c0.91968-1.35838,1.84717-2.70563,2.77243-4.05733 c1.54321-2.25134,3.08865-4.49825,4.64966-6.72733C307.81778,243.75815,308.40234,242.93977,308.98355,242.11584z M382.33826,409.18204c-0.36407,1.28601-0.69366,2.58206-1.06888,3.86584c-0.56784,1.93735-1.1947,3.8569-1.78928,5.78647 c-0.74377,2.41055-1.46527,4.82782-2.25024,7.22278c-0.62909,1.91733-1.31161,3.81238-1.96631,5.71967 c-0.82059,2.39053-1.62003,4.78885-2.48181,7.16269c-0.68143,1.8761-1.41293,3.72995-2.11887,5.59494 c-0.89853,2.37384-1.77814,4.75546-2.71564,7.11145c-0.59012,1.48087-1.22253,2.93945-1.82715,4.41251l-141.57765-64.12329 c0.10912-0.24942,0.21935-0.49771,0.32957-0.746c1.12123-2.53973,2.24245-5.08057,3.38704-7.60693 c0.71706-1.58661,1.45192-3.16324,2.1801-4.74319c1.15796-2.51968,2.31592-5.03937,3.49727-7.54456 c0.74042-1.56995,1.49533-3.12872,2.24355-4.69308c1.19693-2.49966,2.39276-5.0004,3.61195-7.48557 c0.75714-1.54657,1.52985-3.08197,2.29588-4.62296c1.23813-2.48849,2.47626-4.97702,3.73666-7.45105 c0.77272-1.51648,1.55879-3.02295,2.3382-4.53387c1.27821-2.4729,2.55754-4.94583,3.8569-7.40427 c0.79164-1.49869,1.59776-2.98843,2.39832-4.48044c1.31273-2.44952,2.62659-4.89685,3.96045-7.32855 c0.81393-1.48419,1.64008-2.95728,2.46179-4.43588c0.94864-1.70691,1.90396-3.41043,2.86374-5.10953L382.33826,409.18204z M484.64874,532.16217l21.18738,9.59552l-190.83786,12.67633c0.42532-0.56226,0.84399-1.13348,1.26709-1.698 c0.99875-1.33386,2.01306-2.64545,2.99844-3.99493c0.13919-0.19153,0.27835-0.3808,0.41754-0.57233 c0.15366-0.21155,0.30841-0.42084,0.46207-0.63239c1.01099-1.39624,1.98859-2.83258,2.98511-4.24554 c1.08002-1.53094,2.16895-3.04962,3.23117-4.60175c0.22156-0.32178,0.4498-0.6347,0.67026-0.95868 c0.07016-0.10358,0.13919-0.20935,0.21045-0.31287c0.80612-1.18695,1.58105-2.40613,2.37717-3.60419 c0.04788-0.07233,0.09576-0.14581,0.14362-0.2182c1.03995-1.56769,2.08881-3.12317,3.11203-4.70978 c0.36856-0.57123,0.73709-1.1413,1.10342-1.71582c0.17926-0.28058,0.36407-0.5545,0.54224-0.83618 c0.69144-1.08893,1.35281-2.20795,2.03534-3.30579c0.86847-1.39734,1.74695-2.78467,2.60208-4.19537 c0.50772-0.83954,1.00986-1.68347,1.51425-2.52747c0.27057-0.45428,0.55447-0.8963,0.82394-1.35168 c0.54224-0.91522,1.05664-1.85272,1.59219-2.77246c0.57007-0.9809,1.15573-1.94626,1.72025-2.93164L484.64874,532.16217z M346.73425,505.8107c0.11801-0.21042,0.23047-0.42419,0.34738-0.63464c0.05789-0.10355,0.11801-0.20377,0.17593-0.30731 c0.2995-0.53778,0.61572-1.0611,0.91299-1.59998c0.39081-0.71036,0.75937-1.43854,1.14795-2.15115 c0.5556-1.02322,1.11566-2.04202,1.66455-3.0697c0.73932-1.38623,1.45972-2.7869,2.18567-4.18427 c0.69922-1.3439,1.40179-2.68225,2.08878-4.03616c0.41977-0.82727,0.83731-1.65454,1.25262-2.48517 c0.83728-1.67905,1.65009-3.37592,2.46844-5.0683c0.52222-1.08115,1.07336-2.14447,1.58777-3.23117 c0.07571-0.15921,0.14474-0.32291,0.21933-0.48212c0.03452-0.07239,0.0668-0.14697,0.10022-0.21933 c0.28949-0.61353,0.57007-1.23035,0.85733-1.84497l109.91516,49.78238L346.73425,505.8107z M399.86026,489.85867l129.26315,45.8353 l-43.97031-7.20386L399.86026,489.85867z M363.30536,473.09158c0.35852-0.78497,0.70145-1.57996,1.05441-2.36826 c0.24942-0.55447,0.50662-1.10452,0.75378-1.66122c0.35965-0.81058,0.74155-1.60892,1.09674-2.42282 c0.19485-0.44427,0.37299-0.89853,0.56561-1.3439c0.60794-1.40402,1.19693-2.81476,1.79037-4.22546l141.20245,63.95297 L363.30536,473.09158z M223.64391,385.00513c-0.58789,1.30939-1.18024,2.61545-1.76144,3.92816 c-0.22157,0.49994-0.45427,0.99094-0.67473,1.49088l-141.12115-63.9162l146.51572,51.95691 C225.60576,380.63828,224.62372,382.82059,223.64391,385.00513z M222.7565,395.98239 c0.1158-0.26611,0.23383-0.52887,0.34962-0.79388l141.64668,64.15338c-0.67361,1.60443-1.32053,3.22336-2.01196,4.81778 c-0.80835,1.86053-1.66345,3.69547-2.49518,5.54263c-1.021,2.26584-2.02533,4.54169-3.08197,6.78522 c-0.8562,1.81714-1.75586,3.60529-2.63437,5.40793c-1.09003,2.23352-2.16559,4.47931-3.28906,6.68945 c-0.90854,1.78595-1.85831,3.54071-2.78912,5.30994c-1.15018,2.18677-2.28696,4.38354-3.47055,6.54361 c-0.85733,1.56769-1.75253,3.10199-2.62769,4.65411l-151.21547-24.77374c0.01894-0.06345,0.03897-0.12579,0.05901-0.18927 c0.82506-2.59872,1.64565-5.19858,2.49519-7.78952c0.57341-1.74475,1.1691-3.48169,1.75253-5.22308 c0.86067-2.56866,1.71579-5.13846,2.60097-7.69711c0.59901-1.73584,1.22031-3.46164,1.83047-5.19302 c0.9041-2.56088,1.80263-5.12509,2.73012-7.67706c0.61461-1.69354,1.24925-3.37814,1.875-5.0672 c0.95198-2.57202,1.90062-5.14627,2.87598-7.70938c0.638-1.67346,1.29492-3.33804,1.94182-5.00818 c0.99429-2.56421,1.98636-5.13068,3.00403-7.68375c0.65804-1.65121,1.33499-3.29352,2.00305-4.94028 c1.03549-2.55307,2.06874-5.10727,3.12761-7.64923c0.68254-1.63898,1.38399-3.27014,2.07654-4.90576 C220.58533,401.04736,221.65866,398.50876,222.7565,395.98239z M340.39774,508.52637 c-0.66916,1.16241-1.31717,2.34488-1.99527,3.49835c-1.01654,1.72809-2.06985,3.42047-3.10754,5.12958 c-1.25372,2.06317-2.49631,4.13751-3.77899,6.17059c-1.06442,1.69019-2.16559,3.34253-3.25119,5.01154 c-1.30606,2.00531-2.60095,4.02173-3.93484,5.99579c-1.10452,1.63562-2.24243,3.2323-3.36591,4.84564 c-1.36169,1.95404-2.71341,3.91815-4.10184,5.83771c-1.15131,1.59216-2.33264,3.14429-3.50174,4.71198 c-1.26596,1.6969-2.52747,3.40045-3.81348,5.06836l-140.38518,9.32379c0.3485-1.68347,0.72261-3.36475,1.08113-5.04712 c0.55672-2.60431,1.10229-5.21088,1.68462-7.81073c0.40974-1.82819,0.84732-3.65198,1.2693-5.47913 c0.60236-2.60657,1.1947-5.21417,1.82268-7.81628c0.43869-1.81934,0.90521-3.63196,1.35616-5.448 c0.64467-2.59204,1.28044-5.18634,1.94849-7.77283c0.46988-1.81598,0.96646-3.62531,1.44746-5.43909 c0.68921-2.58978,1.36951-5.18298,2.08322-7.76724c0.48878-1.76923,1.00096-3.53067,1.50089-5.29544 c0.73932-2.61322,1.47307-5.22864,2.23688-7.83408c0.5144-1.75253,1.05219-3.49725,1.57661-5.24533 c0.78496-2.61209,1.56325-5.22531,2.37271-7.82962c0.15031-0.48434,0.30952-0.96646,0.46095-1.45078L340.39774,508.52637z M286.62708,590.69275l181.69327-33.16229l-172.97516,40.17462L286.62708,590.69275z M290.73782,598.77509l-20.23874,4.69977 c0.55228-0.50104,1.09116-1.03217,1.64008-1.53876c0.9776-0.89966,1.96408-1.77478,2.9339-2.69226 c0.50104-0.47211,0.99316-0.96198,1.49197-1.43854c0.5144-0.49213,1.03214-0.97424,1.54544-1.47192 c0.83841-0.81171,1.66235-1.65234,2.49518-2.47626c0.60349-0.5968,1.21808-1.16803,1.81711-1.77039L290.73782,598.77509z M284.46814,584.09009c-1.31943,1.38293-2.65997,2.72125-3.99387,4.07404c-1.55099,1.57104-3.09756,3.1521-4.66638,4.68195 c-1.35947,1.32391-2.73792,2.60211-4.10965,3.89368c-1.58105,1.48755-3.15988,2.98285-4.75876,4.4281 c-1.39069,1.25592-2.79916,2.46399-4.20432,3.68652c-0.22379,0.19489-0.45093,0.38641-0.67584,0.58124l-103.59425,24.06 c0.12025-1.00208,0.25386-2.00525,0.37856-3.00848c0.34517-2.76794,0.67697-5.53705,1.0522-8.30389 c0.23381-1.73029,0.49992-3.45605,0.7471-5.18414c0.39081-2.75012,0.77161-5.5014,1.19247-8.24933 c0.27725-1.80933,0.58678-3.6142,0.87738-5.42126c0.42757-2.66443,0.84398-5.33002,1.29938-7.99219 c0.31398-1.83496,0.65915-3.66766,0.9865-5.50031c0.46986-2.6333,0.92859-5.26654,1.42407-7.89532 c0.34404-1.82489,0.71927-3.64423,1.07668-5.46802c0.2906-1.4809,0.58121-2.96399,0.88072-4.44373l137.95346-9.16235 c-0.28058,0.35297-0.56116,0.70593-0.84174,1.05774c-1.44189,1.80597-2.87711,3.62201-4.34238,5.39124 c-1.23923,1.4942-2.50299,2.94611-3.75891,4.41357c-1.48422,1.73584-2.96396,3.48169-4.47266,5.17859 c-1.27374,1.43518-2.57199,2.82587-3.86246,4.23212C287.53229,580.80109,286.01245,582.47009,284.46814,584.09009z M185.98338,484.44073c-0.21043,0.67807-0.40862,1.3595-0.61795,2.03757c-1.71468,5.56601-3.36476,11.15207-4.96588,16.75259 c-0.38524,1.3439-0.77493,2.68671-1.1535,4.03284c-0.11914,0.42755-0.24606,0.85178-0.3652,1.27933 c-0.10577,0.37967-0.21935,0.75714-0.32512,1.13791c-1.68127,6.05817-3.27347,12.13971-4.81891,18.23236 c-0.35295,1.39398-0.70258,2.78802-1.04884,4.18201c-0.23271,0.9375-0.47543,1.8728-0.7048,2.8103 c-1.47194,6.02142-2.87041,12.05615-4.20651,18.10431c-0.2728,1.2337-0.53445,2.4696-0.80057,3.70435 c-0.25163,1.16357-0.50549,2.32483-0.75156,3.4884c-0.29506,1.39178-0.60013,2.77911-0.88741,4.172l-74.11185,4.92242 L7.48564,453.97961l112.52281,18.43613l66.33124,10.86813C186.21944,483.66913,186.10364,484.05548,185.98338,484.44073z M156.73703,645.10809c0.15031-1.52429,0.33292-3.04633,0.49326-4.56952c0.24161-2.2981,0.48322-4.59619,0.7471-6.89435 l97.44926-22.63147c-0.61462,0.50214-1.23146,0.99988-1.8483,1.4953c-1.63228,1.30829-3.26233,2.62213-4.90797,3.88367 c-1.46304,1.11896-2.94057,2.19012-4.41362,3.27234c-1.65121,1.21252-3.3002,2.4306-4.96477,3.59418 c-1.49422,1.04547-3.00291,2.04089-4.50826,3.04633c-1.66904,1.11566-3.33806,2.23688-5.02156,3.30243 c-1.51871,0.96417-3.05078,1.8761-4.57951,2.79803c-1.69019,1.01874-3.37926,2.03979-5.07945,3.00732 c-1.54655,0.87964-3.10312,1.70801-4.65746,2.54419c-1.70355,0.91638-3.40486,1.8338-5.11731,2.69781 c-1.57216,0.79169-3.15211,1.5321-4.73206,2.28033c-1.71245,0.81055-3.4249,1.62115-5.14626,2.37823 c-1.59888,0.70374-3.20667,1.35394-4.81223,2.00977c-1.71579,0.70032-3.43047,1.3996-5.15294,2.04535 c-1.62115,0.60791-3.24898,1.16351-4.8768,1.72247c-2.27028,0.77826-4.53833,1.57886-6.8175,2.26025l-0.02451,0.00781 c-3.55739,1.06329-7.08028,1.95294-10.58423,2.75684c-0.87959,0.20264-1.75586,0.39081-2.63213,0.57672 c-2.75574,0.58459-5.4892,1.07117-8.20706,1.49536c-0.60237,0.09241-1.20695,0.19818-1.80821,0.28278 C155.89528,654.0155,156.295,649.56177,156.73703,645.10809z M218.70363,640.81134c1.02213-0.5578,2.04759-1.09894,3.06638-1.67566 c0.68254-0.38525,1.36284-0.77496,2.04314-1.16913c0.36186-0.20929,0.72929-0.39862,1.09116-0.61127 c0.92749-0.54333,1.84273-1.14014,2.76688-1.6991c0.16367-0.09796,0.32623-0.20038,0.48878-0.2995 c1.12679-0.68475,2.25691-1.34833,3.37814-2.05426c0.4899-0.30841,0.98093-0.61017,1.46971-0.92303 c0.18706-0.11914,0.37523-0.23157,0.56229-0.35187c1.14238-0.7337,2.26805-1.52759,3.40375-2.28473 c0.23381-0.15698,0.46764-0.31396,0.70145-0.47095c1.16576-0.78278,2.33708-1.54321,3.49615-2.34937 c0.00111-0.0011,0.00334-0.0011,0.00446-0.00336c0.34962-0.24268,0.7048-0.46985,1.0533-0.71588 c1.19917-0.8429,2.38162-1.74701,3.5741-2.61432c0.70703-0.5144,1.41629-1.02551,2.12108-1.54883 c0.75046-0.5567,1.51093-1.08112,2.25803-1.64783c0.12805-0.09576,0.25497-0.19373,0.38191-0.29065 c0.16367-0.12354,0.32512-0.24939,0.48769-0.37408c1.10117-0.84064,2.18343-1.73358,3.27792-2.5965 c1.51871-1.19586,3.0441-2.36938,4.54944-3.60419c0.11023-0.09131,0.22269-0.17816,0.33292-0.26941 c0.26056-0.21381,0.5144-0.43872,0.77496-0.65472c1.1535-0.95532,2.28918-1.9552,3.43491-2.93274 c0.27725-0.23718,0.5556-0.46875,0.83173-0.70703l30.37872-7.05579l13.98239,11.2478l-90.64621,28.06616 C218.21373,641.08862,218.45868,640.94501,218.70363,640.81134z M299.23996,600.83826l196.67331-45.67609l-183.0116,56.66559 L299.23996,600.83826z M287.85962,586.49402c0.33292-0.34961,0.65469-0.7182,0.98538-1.07001 c0.60126-0.6369,1.2092-1.26044,1.8071-1.90399c0.87738-0.94415,1.73807-1.91949,2.60876-2.87708 c0.7215-0.79498,1.45636-1.56659,2.1734-2.37048c0.48544-0.54333,0.96423-1.09784,1.44745-1.64563 c0.42978-0.48883,0.86401-0.96979,1.29379-1.46191c1.07559-1.23145,2.12888-2.49963,3.1922-3.75116 c0.79498-0.9364,1.60446-1.84607,2.39386-2.79248c0.31177-0.37518,0.62241-0.75269,0.93304-1.12903 c0.27838-0.33624,0.5545-0.67468,0.83176-1.01208c1.23254-1.50092,2.43839-3.04187,3.65424-4.56952 c0.1069-0.1358,0.21603-0.26831,0.32291-0.40302c0.77939-0.98206,1.5755-1.93958,2.34821-2.9328 c0.02118-0.02667,0.04343-0.05231,0.06348-0.07904l201.3508-13.37225l0.35522,0.16034L287.85962,586.49402z M513.34839,541.25885 l-15.20383-6.88544l34.28793,5.61835L513.34839,541.25885z M369.93692,457.78754c0.38303-0.93082,0.77829-1.85495,1.15573-2.78912 c0.13141-0.32623,0.26834-0.64801,0.39972-0.97424c0.10468-0.26056,0.20267-0.52441,0.30621-0.78497 c0.65356-1.64008,1.27151-3.29797,1.90619-4.94696c0.68585-1.78036,1.37729-3.55627,2.04089-5.34665 c0.20486-0.5545,0.42422-1.10342,0.62686-1.65903c0.03229-0.08682,0.0657-0.17368,0.09799-0.26053 c0.10355-0.28281,0.19595-0.57007,0.2984-0.854c0.39972-1.10007,0.76825-2.21237,1.15906-3.31689 c0.66028-1.86722,1.32385-3.73221,1.95963-5.60831c0.24384-0.72375,0.50327-1.44189,0.74377-2.16562 c0.09131-0.27393,0.18149-0.54559,0.27167-0.81949c0.36075-1.08893,0.68588-2.19122,1.03662-3.28461 c0.57562-1.78928,1.1546-3.57632,1.70688-5.37338c0.30063-0.97983,0.60681-1.95743,0.90076-2.93945 c0.15143-0.50439,0.30841-1.00653,0.45874-1.51202c0.26944-0.91302,0.51218-1.8327,0.77603-2.74683 c0.03455-0.1225,0.07349-0.24384,0.10913-0.36633l150.71109,121.23428L369.93692,457.78754z M386.99796,408.1488 c0.0256-0.09354,0.04898-0.18707,0.07458-0.28058c0.34518-1.24927,0.68588-2.49854,1.0199-3.75116 c0.19598-0.73264,0.40308-1.46082,0.59457-2.19455c0.18594-0.71259,0.35519-1.42963,0.53668-2.14224 c0.31955-1.24927,0.63132-2.4985,0.9386-3.75c0.37411-1.51984,0.73264-3.0419,1.08896-4.56616 c0.22488-0.9631,0.46762-1.92288,0.68585-2.88712c0.11136-0.49435,0.21823-0.98874,0.32736-1.48309 c0.22046-0.99094,0.42642-1.98523,0.6391-2.97839c0.38635-1.80042,0.75046-3.60419,1.11121-5.41016 c0.23825-1.18689,0.49658-2.36935,0.72372-3.5585c0.05121-0.26389,0.11023-0.52777,0.16034-0.79276 c0.14029-0.73932,0.25275-1.48309,0.38858-2.22351c0.36185-1.97412,0.69476-3.95044,1.02658-5.92789 c0.12247-0.72818,0.26053-1.453,0.37854-2.18118c0.08908-0.55228,0.19931-1.10007,0.28616-1.65121 c0.0423-0.26834,0.07349-0.53778,0.11578-0.80502c0.10468-0.6814,0.19821-1.36172,0.30063-2.04312 c0.26501-1.76035,0.49771-3.52179,0.73822-5.2832l138.69168,174.43152L386.99796,408.1488z M401.55487,302.67285 c-0.01669-1.96075-0.11469-3.86917-0.16476-5.80875c-0.05124-1.89282-0.0813-3.79678-0.16479-5.67178 c-0.03452-0.76828-0.03674-1.55658-0.07684-2.3226c-0.00891-0.18484-0.02115-0.36966-0.03006-0.5545 c-0.07794-1.44855-0.21933-2.85483-0.31619-4.29114l29.98456,52.78195l-30.23843-4.95474 c0.1236-1.63229,0.16702-3.22336,0.26834-4.84451c0.16589-2.65665,0.35962-5.32663,0.46429-7.95432 c0.01224-0.2995,0.03119-0.60126,0.0423-0.89966c0.00891-0.24829,0.01559-0.49435,0.02451-0.74155 c0.06903-1.93958,0.05679-3.8324,0.09354-5.75418c0.04007-2.25467,0.108-4.52274,0.10464-6.75403 c-0.0011-0.52554,0.01782-1.06223,0.0145-1.58551C401.55933,303.10153,401.556,302.88776,401.55487,302.67285z M398.85706,348.94238 c0.03452-0.27502,0.05344-0.55115,0.08685-0.82727c0.06122-0.51218,0.12357-1.02325,0.18259-1.5343 c0.17035-1.47308,0.30286-2.94614,0.45538-4.41919c0.11359-1.09674,0.2572-2.19122,0.36075-3.28796l4.09296,5.63727 l91.35327,125.83606L398.85706,348.94238z M501.11966,471.62076l-98.50925-135.68542l30.52344,5.0015l96.73108,170.27734 L501.11966,471.62076z M438.13538,341.75745l9.30823,1.52539l64.77246,128.87012L438.13538,341.75745z M435.78827,337.62552 l-35.69531-62.83286c-0.01447-0.14474-0.03119-0.28726-0.04565-0.43088c-0.1904-1.88617-0.4632-3.71329-0.68921-5.57382 c-0.14587-1.19806-0.28839-2.39832-0.4487-3.58746c-0.17706-1.31161-0.30399-2.65884-0.49884-3.95822 c-0.02002-0.13806-0.0423-0.27502-0.06235-0.41196c-0.27167-1.79819-0.62463-3.53293-0.93082-5.30438 c-0.14807-0.85733-0.2984-1.71245-0.45538-2.56421c-0.29507-1.61224-0.53778-3.26457-0.86069-4.85565 c-0.02338-0.11691-0.04898-0.23383-0.07236-0.35074c-0.34518-1.68683-0.76938-3.3091-1.14572-4.97144 c-0.10913-0.47655-0.22269-0.94975-0.33405-1.42407c-0.05453-0.23605-0.11023-0.47321-0.16589-0.70926 c-0.40863-1.72691-0.76379-3.49504-1.20694-5.19301c-0.02563-0.09799-0.05234-0.19485-0.07684-0.29283 c-0.00223-0.00446-0.00223-0.01003-0.00446-0.01559l52.29651,104.04965L435.78827,337.62552z M393.75089,258.35739 c0.06345,0.38748,0.13916,0.76492,0.20041,1.1535c0.31287,1.96631,0.57675,3.96603,0.84619,5.9624l-44.01483-77.47551 c1.23926-1.46304,2.47403-2.93166,3.72107-4.38245c1.04996-1.22144,2.1055-2.43394,3.16101-3.64647 c1.26932-1.45747,2.54532-2.90494,3.82352-4.35016c0.10468,0.14474,0.21933,0.27391,0.32401,0.41977 c0.34183,0.47543,0.67252,0.96756,1.01099,1.44856c2.00305,2.86929,3.94934,5.82544,5.80319,8.91631 c0.10132,0.16702,0.20041,0.33737,0.30173,0.50662c2.0231,3.4015,3.96268,6.92662,5.79984,10.59201 c6.75626,13.4836,12.02277,28.38902,15.77948,44.4424c0.12915,0.55338,0.25607,1.10785,0.38077,1.66345 C391.97943,248.4234,392.9325,253.34251,393.75089,258.35739z M542.53131,35.77354c1.81262-0.82728,3.62866-1.63117,5.44574-2.42838 c1.50983-0.66249,3.01959-1.32275,4.53168-1.96408c1.80597-0.76604,3.61639-1.50758,5.42682-2.24355 c1.52539-0.62018,3.05078-1.23924,4.57953-1.83715c1.80151-0.7048,3.60638-1.3851,5.4101-2.06095 c1.54993-0.57898,3.09869-1.15796,4.65082-1.71468c1.78705-0.64133,3.57739-1.25706,5.3678-1.86833 c1.5744-0.5389,3.1488-1.07668,4.7254-1.59109c2.80585-0.91524,5.61389-1.81488,8.42749-2.65663l0.07129-0.02115 C659.73383-3.09393,723.4129,0.39332,778.22461,26.97525l-347.29868,80.6421c0.69812-0.58678,1.39514-1.18246,2.09546-1.7659 c1.23148-1.02435,2.46625-2.04202,3.70215-3.05412c1.83047-1.49756,3.66428-2.97953,5.50479-4.44814 c1.24814-0.99541,2.49854-1.98524,3.75113-2.96839c1.83157-1.43633,3.66763-2.85706,5.50812-4.26331 c1.28043-0.9787,2.56198-1.95072,3.84689-2.91495c1.83267-1.37508,3.66983-2.73457,5.51144-4.0807 c1.30048-0.95087,2.60208-1.89505,3.90591-2.83033c1.83713-1.3183,3.67874-2.61877,5.52368-3.9059 c1.32053-0.92191,2.64218-1.83826,3.96713-2.74459c1.84274-1.2604,3.68991-2.50298,5.54041-3.73444 c1.34058-0.89074,2.68225-1.77814,4.02615-2.65329c1.84384-1.20027,3.69324-2.38273,5.54376-3.55405 c1.36172-0.86068,2.72342-1.7169,4.0885-2.56088c1.84271-1.14015,3.68988-2.26137,5.54041-3.37145 c1.38733-0.83284,2.77798-1.66123,4.16977-2.47737c1.83826-1.0778,3.681-2.13444,5.52594-3.18217 c1.40625-0.79833,2.81363-1.59331,4.22324-2.37271c1.84271-1.02101,3.69098-2.02087,5.54041-3.0107 c1.42517-0.7627,2.85144-1.52317,4.28113-2.26693c1.8349-0.95755,3.67432-1.89171,5.51587-2.81808 c1.45306-0.73152,2.90607-1.4597,4.36243-2.17118c1.82599-0.89297,3.65649-1.76255,5.4881-2.62546 C539.56848,37.14528,541.04932,36.4505,542.53131,35.77354z M536.36737,34.34836c-4.94916,2.34153-9.88165,4.77994-14.79187,7.33747 c-0.2984,0.15588-0.60016,0.2906-0.8974,0.44648c-0.11578,0.06124-0.23163,0.12804-0.34741,0.18929 c-5.43683,2.85482-10.84366,5.86775-16.22818,8.98201c-0.52441,0.30285-1.05441,0.57341-1.57773,0.87849 c-0.30508,0.17815-0.60568,0.37411-0.91077,0.55338c-5.15073,3.02072-10.27136,6.17283-15.36752,9.42403 c-0.55338,0.35295-1.1134,0.67585-1.66568,1.03103c-0.46207,0.29728-0.91635,0.62018-1.37842,0.91858 c-4.9837,3.23116-9.93954,6.5681-14.86646,10.01192c-0.49103,0.34293-0.98651,0.66249-1.47641,1.00654 c-0.56674,0.39861-1.12454,0.82951-1.69019,1.23145c-4.91687,3.48947-9.80594,7.06802-14.66046,10.76348 c-0.36856,0.28059-0.74155,0.54892-1.11011,0.83173c-0.60123,0.45985-1.19247,0.95087-1.7926,1.41405 c-4.94473,3.81571-9.86496,7.70714-14.7384,11.73106c-0.22046,0.18149-0.43982,0.36298-0.66028,0.54446 c-0.50217,0.41642-0.99652,0.854-1.49866,1.27264c-2.59094,2.15894-5.17633,4.33346-7.74612,6.54917l-104.16208,24.18696 c-0.02563-0.01337-0.05234-0.02673-0.07907-0.04008c-0.1748-0.08685-0.34851-0.17593-0.52332-0.26166 c-0.99985-0.49548-1.99969-0.98872-3.01181-1.45413c-0.38303-0.17592-0.76492-0.35185-1.14905-0.52332 c-0.30954-0.14029-0.62796-0.25609-0.9375-0.39415c-0.81839-0.35629-1.63007-0.73041-2.45624-1.06667 c-0.78049-0.32289-1.57214-0.61684-2.35934-0.92303c-0.73041-0.28503-1.46082-0.56895-2.19678-0.83841 c-1.6412-0.59901-3.29797-1.15573-4.96478-1.68015c-0.48877-0.15366-0.97202-0.32957-1.46304-0.47655 c-2.07541-0.62129-4.17422-1.17355-6.2886-1.67905c-0.76492-0.1826-1.53766-0.33848-2.30704-0.50661 c-1.46414-0.31844-2.93497-0.61349-4.41696-0.87738c-0.84396-0.15031-1.69016-0.29729-2.54083-0.42978 c-1.62781-0.25387-3.26678-0.46653-4.91464-0.65359c-0.63132-0.07237-1.25595-0.1659-1.8895-0.22713 c-2.21014-0.21712-4.44034-0.36855-6.685-0.46764c-0.73154-0.03229-1.46973-0.03896-2.20459-0.05901 c-1.66345-0.04565-3.33582-0.06236-5.01822-0.04454c-0.77939,0.00891-1.56104,0.02116-2.34488,0.04343 c-1.95184,0.05567-3.91479,0.15476-5.89001,0.29617h-0.00111L536.36737,34.34836z M226.88397,130.29227 c3.15546-0.85623,6.2942-1.62895,9.40733-2.27585c0.57564-0.12136,1.15018-0.23716,1.7247-0.35073 c27.04066-5.2999,52.38112-2.74348,74.59618,7.08472c1.6167,0.72597,3.16995,1.59444,4.75211,2.39833l10.29141,18.11432 l-72.30699,13.19409l-30.01128-37.7429C225.85405,130.56728,226.36845,130.43256,226.88397,130.29227z M126.40731,191.26791 c1.03326-1.00096,2.08878-1.94739,3.13096-2.92943c0.65804-0.62241,1.31941-1.23701,1.9819-1.85162 c0.55225-0.51218,1.10005-1.03326,1.65454-1.53987c0.71371-0.65247,1.41405-1.33722,2.1311-1.98077 c1.1123-0.99875,2.24689-1.93848,3.36699-2.91606c0.51329-0.44649,1.02769-0.88963,1.54321-1.33167 c0.88518-0.76158,1.7659-1.53653,2.65552-2.28474c0.51106-0.42868,1.011-0.88406,1.52318-1.30827 c1.17577-0.97426,2.37271-1.88504,3.55627-2.83479c0.41197-0.33069,0.82504-0.65804,1.23813-0.98538 c1.17021-0.92747,2.33485-1.875,3.51286-2.7791c0.32066-0.24608,0.63464-0.51218,0.95644-0.75603 c1.23256-0.9375,2.48515-1.80931,3.72662-2.72009c0.3396-0.2494,0.68143-0.4966,1.02213-0.74489 c1.55547-1.13013,3.10201-2.29254,4.66971-3.38036c1.30049-0.90187,2.61768-1.73473,3.92595-2.60654 c0.2661-0.17815,0.53444-0.35406,0.80055-0.52998c1.61559-1.06889,3.22336-2.16896,4.85008-3.18997 c1.34724-0.84619,2.7112-1.62003,4.06622-2.43394c0.22491-0.13472,0.44872-0.26834,0.67363-0.40195 c1.65456-0.9865,3.30019-2.00417,4.96588-2.94167c1.38844-0.78163,2.79247-1.48753,4.18871-2.23465 c0.19151-0.10243,0.38301-0.20486,0.57452-0.3062c1.68573-0.8963,3.367-1.82379,5.06274-2.66887 c1.50201-0.74712,3.01628-1.41518,4.52496-2.12108c0.09242-0.04343,0.18483-0.08685,0.27725-0.13028 c1.70465-0.7961,3.40485-1.62337,5.11841-2.36603c1.62672-0.70369,3.26569-1.32387,4.89908-1.97968 c1.70354-0.68364,3.40375-1.40068,5.11397-2.03088c1.67014-0.61349,3.34918-1.14015,5.02377-1.70242 c1.39958-0.46875,2.79582-0.95978,4.19873-1.39178l29.70064,37.35432L125.5355,192.14307 C125.82833,191.85692,126.11337,191.55295,126.40731,191.26791z M253.80104,172.71268l52.80757,66.41585 c-0.17816,0.25163-0.34738,0.51329-0.52554,0.76604c-3.57965,5.07388-7.10144,10.2168-10.58646,15.40202 c-0.71036,1.0544-1.4274,2.0988-2.1322,3.15767c-0.46429,0.69812-0.92194,1.40179-1.384,2.10214 c-3.40262,5.14404-6.75516,10.34039-10.06091,15.58685c-0.60791,0.9631-1.21921,1.92065-1.82379,2.88712 c-0.54669,0.87628-1.08115,1.76254-1.62561,2.64105c-3.28015,5.29321-6.5202,10.62543-9.70016,16.0144 c-0.47653,0.81058-0.95309,1.62115-1.42853,2.43283c-0.58121,0.99207-1.14792,1.99637-1.7258,2.99289 c-0.97534,1.68015-1.96408,3.34918-2.92941,5.03824L123.79967,196.42865L253.80104,172.71268z M44.7687,307.49399 c0.71482-1.5087,1.46972-2.99066,2.20013-4.49045c1.23701-2.53638,2.46067-5.08167,3.74222-7.58801 c0.73598-1.43964,1.50981-2.84702,2.26026-4.27554c1.3272-2.52859,2.64439-5.06497,4.01612-7.55792 c0.75824-1.37732,1.55434-2.72458,2.32595-4.09073c1.41071-2.49966,2.8114-5.00708,4.26553-7.46774 c0.79944-1.35281,1.63451-2.67111,2.44731-4.01169c1.47306-2.43283,2.93722-4.87347,4.45148-7.26511 c0.82839-1.30716,1.69241-2.57867,2.53304-3.8736c1.39513-2.15004,2.7869-4.30562,4.21432-6.41891 c0.15476-0.23047,0.30285-0.46764,0.45762-0.69699c0.84731-1.24927,1.72803-2.45845,2.58649-3.69435 c1.22143-1.75922,2.44397-3.5162,3.68767-5.24757c0.41085-0.57343,0.80724-1.16576,1.22143-1.73584 c0.86513-1.19136,1.76032-2.34152,2.63659-3.51842c1.12234-1.51093,2.24689-3.01628,3.38593-4.5027 c0.58566-0.76604,1.1535-1.55656,1.74362-2.31592c0.89297-1.14906,1.816-2.25359,2.71899-3.38927 c1.0366-1.30383,2.07765-2.60097,3.12762-3.88586c0.72484-0.88741,1.43186-1.80374,2.16338-2.68112 c0.95421-1.14684,1.93736-2.2469,2.90159-3.37703c0.94196-1.10451,1.88837-2.20457,2.83923-3.2935 c0.84398-0.96535,1.67014-1.96187,2.5208-2.91496c0.97758-1.09561,1.9819-2.14111,2.96839-3.22002 c0.88072-0.96312,1.76478-1.91956,2.65218-2.86819c0.95977-1.02435,1.90062-2.08099,2.86707-3.08975 c0.67585-0.7048,1.37062-1.37173,2.04981-2.06874L260.83566,311.4433c-1.47864,2.61432-2.95615,5.22977-4.41138,7.86414 c-0.43425,0.78607-0.86403,1.5766-1.29604,2.36493c-0.55449,1.01208-1.09561,2.03421-1.64787,3.04965 c-2.7368,5.0405-5.43129,10.11548-8.07903,15.22501c-0.57675,1.1134-1.16464,2.21793-1.73694,3.33359 c-0.17703,0.34515-0.35629,0.68698-0.53221,1.03214c-0.29283,0.5723-0.57454,1.1524-0.86626,1.7247 c-2.69672,5.30658-5.33441,10.65326-7.93204,16.02887c-0.65247,1.34836-1.31161,2.69116-1.95628,4.04398 c-0.28171,0.58789-0.56897,1.17355-0.84843,1.76254c-1.1524,2.4306-2.27696,4.87793-3.40932,7.3219L43.71429,309.80768 C44.0717,309.04053,44.40684,308.25891,44.7687,307.49399z M5.97138,444.79385c0.03229-0.32401,0.06458-0.64801,0.09798-0.97202 c0.21934-2.15225,0.41085-4.30338,0.66806-6.45453c0.15031-1.26041,0.3485-2.51746,0.51106-3.77786 c0.09241-0.707,0.19151-1.41403,0.28838-2.12106c0.04565-0.3407,0.09241-0.6803,0.13918-1.0199 c0.30062-2.17007,0.57119-4.34125,0.90856-6.50797c0.21712-1.39401,0.48211-2.78247,0.71482-4.17426 c0.0913-0.55002,0.18817-1.09894,0.2817-1.64786c0.0579-0.33624,0.11691-0.67252,0.17481-1.00876 c0.37968-2.1879,0.73263-4.37912,1.14906-6.56253c0.28392-1.48755,0.61795-2.96729,0.91858-4.45261 c0.08239-0.4064,0.16813-0.8139,0.25275-1.22031c0.06458-0.31287,0.13027-0.62463,0.19485-0.9375 c0.46653-2.23911,0.90744-4.48267,1.41182-6.71509c0.39081-1.73135,0.83507-3.4516,1.24926-5.17853 c0.01893-0.08127,0.03897-0.16144,0.05901-0.24161c0.07571-0.31845,0.15365-0.6369,0.23159-0.95422 c0.55449-2.28586,1.08448-4.5784,1.67905-6.85535c0.46318-1.77927,0.97981-3.54404,1.46638-5.31662 c0.06569-0.23605,0.13138-0.47098,0.19708-0.70703c0.65692-2.37604,1.29157-4.75766,1.9908-7.12146 c0.5222-1.77036,1.09561-3.52289,1.64119-5.28433c0.02115-0.0679,0.04231-0.1347,0.06347-0.20264 c0.77717-2.50519,1.53541-5.01709,2.35823-7.50894c0.57676-1.74585,1.20361-3.47388,1.80152-5.21194 c0.87961-2.5542,1.74251-5.11508,2.66888-7.65036c0.60904-1.66791,1.26485-3.31467,1.89282-4.97366 c0.97759-2.5787,1.9407-5.16406,2.96505-7.72162c0.64356-1.60779,1.33277-3.19217,1.99526-4.79105 c1.06666-2.57648,2.12107-5.16074,3.2345-7.71161c0.68253-1.56323,1.40849-3.09976,2.10772-4.65298 c0.28727-0.6369,0.57898-1.27042,0.86847-1.90619l177.62817,80.45169c-2.15559,4.94583-4.25662,9.92172-6.32649,14.91544 c-0.48322,1.16467-0.96422,2.32932-1.44188,3.49728c-0.41866,1.02103-0.83061,2.04538-1.24481,3.0686 c-2.3549,5.80984-4.6608,11.6442-6.89545,17.51083c-0.36743,0.96646-0.72595,1.93738-1.09004,2.90607 c-0.4398,1.16574-0.86847,2.33484-1.3027,3.50284c-2.16116,5.80984-4.28113,11.63864-6.32092,17.4986 c-0.22714,0.65356-0.45206,1.30716-0.67697,1.96185c-0.12804,0.36966-0.2494,0.74155-0.37633,1.11121 c-0.37857,1.09894-0.74377,2.20233-1.11789,3.30353c-1.83826,5.41571-3.62642,10.85034-5.35892,16.30389 c-0.04898,0.15143-0.10243,0.30286-0.15031,0.45538L5.46477,449.8978C5.61063,448.1965,5.80214,446.49518,5.97138,444.79385z M11.05974,542.85217c-0.02115-0.09241-0.04342-0.18597-0.06458-0.27838c-0.10578-0.45428-0.20932-0.90967-0.31287-1.36505 c-0.51774-2.28583-1.01099-4.59064-1.46749-6.92102c-0.12693-0.65137-0.24161-1.31055-0.36298-1.96521 c-0.38191-2.03204-0.74822-4.07629-1.08225-6.14166c-0.04899-0.30176-0.10912-0.5957-0.15699-0.89856 c-0.27724-1.74475-0.50661-3.52173-0.75045-5.28876c-0.06012-0.43536-0.11691-0.87073-0.17481-1.30719 c-0.08351-0.63464-0.16256-1.27264-0.24161-1.91058c-0.13695-1.09454-0.27724-2.18457-0.40195-3.28796 c-0.14697-1.29602-0.29617-2.59207-0.42533-3.89923c-0.14029-1.42963-0.24829-2.88043-0.36854-4.32343 c-0.05567-0.66916-0.10578-1.34167-0.15699-2.01306c-0.14586-1.91287-0.31287-3.81128-0.42199-5.74753 c-0.0167-0.28726-0.0245-0.57898-0.04008-0.86624c-0.09241-1.71579-0.14141-3.45828-0.20487-5.19189 c-0.02561-0.7059-0.04676-1.41516-0.06792-2.12442c-0.05901-1.96854-0.13695-3.92371-0.16033-5.91452 c0-0.07571-0.00223-0.1492-0.00334-0.22491c-0.02116-1.9574,0.01225-3.94485,0.02672-5.92343 c0.00557-0.75266,0.0167-1.50867,0.02784-2.26471c0.02895-2.05313,0.03897-4.09406,0.10578-6.16837 c0.06569-2.0242,0.18483-4.07736,0.28726-6.12274c0.04008-0.80612,0.08573-1.61557,0.1325-2.42392 c0.06012-1.05328,0.12025-2.10773,0.18928-3.1666l20.06059,27.62857l61.61699,84.85977l-65.78899,4.37018 C16.89186,564.18762,13.62173,553.79047,11.05974,542.85217z M40.35954,609.58759c-0.3396-0.46429-0.6636-0.94531-0.99763-1.41406 c-0.06124-0.08459-0.12025-0.17145-0.18037-0.2561c-0.47209-0.66473-0.93862-1.33386-1.4018-2.00861 c-1.57884-2.31592-3.12205-4.6853-4.60624-7.14374c-0.01114-0.01892-0.02338-0.03784-0.03563-0.05792L22.58258,577.7113 l66.72984-4.43146l44.9067,61.84747l-51.33673,11.92371c-3.50284-1.83606-6.92217-3.85468-10.24574-6.06708 c-0.49103-0.32959-0.98872-0.64355-1.4764-0.9809c-0.06681-0.04681-0.13361-0.09247-0.20042-0.13922 c-0.8707-0.60126-1.72693-1.23145-2.58538-1.85944c-1.06889-0.78607-2.1311-1.58881-3.18217-2.41724 c-0.58678-0.46094-1.1769-0.91742-1.75699-1.39062c-2.32038-1.89728-4.57061-3.89368-6.76295-5.96466 c-0.39081-0.36963-0.78274-0.73706-1.1691-1.1123c-0.60459-0.58563-1.16798-1.22589-1.76255-1.82489 c-1.45191-1.46307-2.90159-2.92944-4.29337-4.4693c-0.5556-0.61798-1.10675-1.24261-1.65344-1.8739 c-0.57898-0.66473-1.12344-1.37286-1.69129-2.0509c-0.00668-0.00891-0.01336-0.01672-0.02004-0.02454 c-1.12568-1.34503-2.25691-2.68335-3.33916-4.08069C41.93615,611.74652,41.14561,610.6687,40.35954,609.58759z M44.11178,620.53479 c0.7961,0.92303,1.59665,1.83826,2.4128,2.73566c1.65343,1.82935,3.35698,3.573,5.08167,5.2821 c0.6135,0.60461,1.20807,1.2337,1.83047,1.82489c3.39038,3.22784,6.91549,6.20959,10.55416,8.97644 c1.20584,0.91968,2.4217,1.81268,3.6487,2.68005c0.87849,0.61792,1.75142,1.24481,2.64327,1.836 c2.14,1.42743,4.31229,2.77466,6.51576,4.0473c0.24607,0.14142,0.49325,0.28174,0.74155,0.422 c0.41753,0.23718,0.84286,0.45764,1.26262,0.69031c0.80835,0.44537,1.60779,0.91638,2.42393,1.34283l71.14346,125.21588 c0.0334,0.33624,0.07683,0.66467,0.11023,1.00092c0.24161,2.40613,0.5222,4.78442,0.79276,7.17157 c0.24272,2.14447,0.47321,4.29785,0.74043,6.4256c0.29617,2.36493,0.6302,4.70203,0.95532,7.04578 c0.29283,2.11664,0.5723,4.24329,0.88962,6.34204c0.34851,2.31262,0.73486,4.59515,1.11121,6.8866 c0.34404,2.091,0.67473,4.19312,1.04105,6.26855c0.40306,2.26917,0.84286,4.5094,1.27264,6.75848 c0.39194,2.05316,0.77049,4.11749,1.18581,6.15283c0.4565,2.23352,0.95198,4.43811,1.43631,6.64935 c0.4398,2.01086,0.86514,4.03284,1.32721,6.02362c0.50883,2.18903,1.05664,4.3446,1.59219,6.50909 c0.48991,1.97522,0.96312,3.96381,1.4753,5.9212c0.56006,2.14221,1.16019,4.24658,1.74696,6.36432 c0.53778,1.93964,1.05998,3.89258,1.62115,5.81213c0.61015,2.091,1.26151,4.14636,1.89951,6.21509 c0.24161,0.78387,0.47432,1.5744,0.72038,2.35602L44.11178,620.53479z M292.66739,1039.49023 c-0.78384-0.5144-1.56546-1.03333-2.34488-1.55884c-1.05884-0.71265-2.13443-1.38733-3.18549-2.12 c-1.45413-1.00879-2.88489-2.05981-4.3201-3.10645c-2.56311-1.8728-5.10507-3.79236-7.61584-5.78308 c-1.05664-0.83508-2.12219-1.65234-3.16769-2.50745c-1.36841-1.12238-2.71231-2.27808-4.05844-3.42938 c-1.39066-1.19135-2.78134-2.38049-4.15195-3.60748c-0.52332-0.46765-1.03439-0.95312-1.55435-1.42743 c-0.74487-0.67694-1.48642-1.3584-2.22351-2.04425c-1.51093-1.40961-3.0174-2.82806-4.5027-4.28223 c-0.46764-0.45648-0.92636-0.92639-1.39066-1.38733c-0.49994-0.49438-0.99875-0.99316-1.49533-1.492 c-1.86053-1.88165-3.70883-3.78564-5.52705-5.74078c-0.1826-0.19598-0.36298-0.39417-0.54558-0.59015 c-0.3318-0.35626-0.6636-0.71704-0.99318-1.07556c-17.84154-19.51611-33.58871-42.55957-46.84404-69.01013l-0.12248-0.24493 c-21.19072-42.36365-35.05733-91.68616-41.3916-145.93677l150.11542,264.21375 C302.35532,1045.61182,297.47629,1042.62561,292.66739,1039.49023z M495.48236,1066.44177 c-1.91843,0.51221-3.84131,1.04663-5.75082,1.521c-1.43967,0.354-2.87488,0.6925-4.31009,1.02649 c-2.03644,0.47437-4.06067,0.89746-6.0871,1.32947c-1.01544,0.21826-2.03088,0.43872-3.0441,0.64355 c-2.17117,0.43652-4.34906,0.89746-6.51019,1.28491c-1.00989,0.18262-2.00864,0.32288-3.0163,0.49438 c-55.85052,9.39734-107.88205,1.93506-152.95352-21.00366L156.15582,774.2655c-1.82825-18.50739-2.81474-37.54919-2.89935-57.08539 c-0.00334-0.95197,0.00223-1.91064,0.00334-2.86481c0.0011-4.84344,0.06123-9.71912,0.17035-14.61816 c0.01335-0.61908,0.0256-1.23706,0.0412-1.85724c0.02783-1.07666,0.05789-2.15558,0.09018-3.2356 c0.13139-4.44037,0.31288-8.90515,0.53223-13.39008c0.08015-1.63116,0.1492-3.25787,0.24049-4.89569 c0.25609-4.58508,0.58121-9.20251,0.9286-13.8299c0.44536-0.06012,0.90298-0.17145,1.34947-0.23602 c0.97536-0.14032,1.95294-0.28619,2.93275-0.44647c1.27933-0.20599,2.57759-0.49774,3.8647-0.73822 c1.56882-0.2962,3.12762-0.55005,4.70868-0.89856c0.55672-0.12244,1.11009-0.23383,1.66791-0.36182 c2.2213-0.50995,4.46819-1.14685,6.70952-1.75922c0.81056-0.22162,1.60555-0.37634,2.41835-0.61243l323.68738,407.06848 C500.21887,1065.1925,497.85284,1065.80933,495.48236,1066.44177z M707.81604,934.70789 c-0.2572,0.25836-0.50995,0.52332-0.76605,0.78168c-2.41949,2.42944-4.85791,4.81891-7.30072,7.1994 c-0.49994,0.48541-0.99432,0.98645-1.49536,1.47192c-2.26691,2.19348-4.5517,4.3468-6.83978,6.49573 c-0.68475,0.64355-1.36279,1.30493-2.0498,1.94403c-2.18231,2.03314-4.38245,4.02618-6.58258,6.01697 c-0.80164,0.72595-1.59442,1.46753-2.39832,2.18677c-2.08099,1.86609-4.17755,3.68768-6.27301,5.51367 c-0.93866,0.81952-1.86945,1.6568-2.8103,2.46515c-1.99969,1.72137-4.01501,3.40265-6.02698,5.08838 c-1.04773,0.87738-2.08881,1.77698-3.13989,2.64545c-1.91949,1.58557-3.85352,3.13098-5.78534,4.6853 c-1.15906,0.9353-2.31146,1.88617-3.47498,2.80811c-1.85944,1.47412-3.73224,2.90381-5.60052,4.3468 c-1.24597,0.96198-2.48517,1.94403-3.7356,2.89264c-1.80481,1.36731-3.62085,2.69452-5.43347,4.0351 c-1.32947,0.98206-2.65332,1.98413-3.98834,2.95282c-1.76031,1.27594-3.5329,2.51184-5.30212,3.76111 c-1.39624,0.98651-2.78687,1.99304-4.18866,2.96173c-1.72919,1.1958-3.46948,2.35156-5.20532,3.52063 c-1.4541,0.97986-2.90265,1.97968-4.36237,2.93945c-1.67908,1.10675-3.3681,2.1712-5.05273,3.25342 c-1.52985,0.98206-3.05524,1.97968-4.58954,2.94171c-1.64233,1.02881-3.29462,2.01526-4.9436,3.01959 c-1.58441,0.96643-3.16437,1.95074-4.75433,2.8927c-1.61115,0.95526-3.23114,1.87054-4.84784,2.80353 c-1.64008,0.94873-3.27795,1.91296-4.92358,2.83484c-1.5744,0.88403-3.15765,1.72583-4.73651,2.58765 c-1.69464,0.92407-3.38593,1.86389-5.08502,2.76343c-1.55994,0.82397-3.12872,1.60779-4.69312,2.40955 c-1.72803,0.88623-3.4516,1.79041-5.18408,2.64771c-1.54321,0.76599-3.09308,1.48975-4.64075,2.23352 c-1.76257,0.84839-3.52289,1.7124-5.29102,2.53198c-1.52094,0.70581-3.04858,1.36951-4.57397,2.0531 c-1.80151,0.80835-3.60083,1.63232-5.4068,2.41162c-1.51648,0.65247-3.03741,1.26489-4.55609,1.89734 c-1.81934,0.75708-3.63647,1.52979-5.46027,2.25806c-1.51093,0.6012-3.02631,1.16235-4.53943,1.74365 c-1.84271,0.70813-3.68433,1.42957-5.5304,2.10657c-1.492,0.54553-2.9884,1.04883-4.48267,1.57434 c-1.87274,0.65918-3.74554,1.33167-5.6228,1.9574c-1.47748,0.49219-2.95947,0.94421-4.43811,1.41626 c-1.69128,0.53894-3.38147,1.08679-5.07498,1.59888L182.89586,656.24677c0.05122-0.01556,0.10243-0.03784,0.15366-0.05341 l129.30214-40.0321l395.70377,318.2995C707.97522,934.54315,707.89618,934.62555,707.81604,934.70789z M715.89728,926.43292 c-0.05566,0.06012-0.11139,0.12024-0.16705,0.17816c-1.67566,1.74585-3.3703,3.4516-5.05713,5.17297L316.63947,614.83405 L524.8512,550.37l340.32086,154.13715C826.19769,788.61975,774.81195,865.02081,715.89728,926.43292z M940.47083,429.84055 c-0.21381,2.35825-0.41534,4.71759-0.65247,7.07584c-0.21161,2.11328-0.45654,4.22543-0.68591,6.33871 c-0.2605,2.38831-0.50885,4.77661-0.79163,7.16492c-0.24719,2.08432-0.52667,4.16754-0.79163,6.25189 c-0.30731,2.41833-0.60352,4.8367-0.93311,7.25284c-0.27832,2.03088-0.58673,4.05844-0.88068,6.08823 c-0.35742,2.46512-0.70258,4.93137-1.08447,7.39426c-0.30621,1.98077-0.64355,3.95822-0.96533,5.93677 c-0.40753,2.5108-0.80615,5.02267-1.23816,7.53122c-0.33069,1.91397-0.69031,3.82462-1.03546,5.73749 c-0.4621,2.56644-0.91412,5.134-1.40179,7.69711c-0.35187,1.8494-0.73267,3.69324-1.09784,5.54153 c-0.51776,2.6221-1.02661,5.24643-1.57104,7.8652c-0.37415,1.79932-0.77722,3.59418-1.16357,5.39124 c-0.57007,2.65332-1.13232,5.30884-1.72913,7.95764c-0.39636,1.76031-0.82062,3.51624-1.22925,5.27429 c-0.62463,2.68561-1.24036,5.37341-1.89056,8.05341c-0.40643,1.67352-0.83954,3.34143-1.25598,5.01154 c-0.68805,2.75684-1.36951,5.51593-2.08545,8.26611c-0.41528,1.59552-0.8562,3.18439-1.2804,4.77655 c-0.75049,2.81586-1.49536,5.63171-2.27472,8.43976c-0.4209,1.51764-0.86737,3.02856-1.29718,4.54395 c-0.81726,2.87817-1.62891,5.75861-2.47516,8.62793c-0.41638,1.4118-0.8562,2.81696-1.2804,4.22766 c-0.89075,2.95947-1.77704,5.9201-2.69897,8.87067c-0.41083,1.31384-0.84283,2.61987-1.26038,3.93152 c-0.96649,3.04077-1.93066,6.08154-2.93054,9.11005c-0.38745,1.17462-0.79498,2.34265-1.18689,3.51508 c-1.05664,3.15546-2.11328,6.30865-3.20447,9.44965c-0.36633,1.05328-0.75043,2.09882-1.12012,3.1499 c-1.1424,3.24561-2.28699,6.49127-3.46606,9.72131c-0.34851,0.95416-0.71375,1.90173-1.06555,2.8548 c-1.22815,3.32806-2.46069,6.65271-3.72888,9.96405c-0.27722,0.72485-0.56787,1.44409-0.84729,2.16895 c-1.36066,3.52179-2.729,7.04022-4.13306,10.54193c-0.22827,0.57233-0.46875,1.13904-0.69922,1.71021 c-1.46753,3.64313-2.95062,7.2796-4.46594,10.89935c-0.19043,0.45538-0.38971,0.90521-0.58124,1.3606 c-1.56769,3.72772-3.1521,7.44659-4.7688,11.14648c-0.14478,0.33185-0.29614,0.66028-0.44092,0.99097 c-1.67682,3.82574-3.37256,7.63922-5.09949,11.43378c-0.02673,0.05676-0.05347,0.11243-0.07904,0.16925 c-0.30621,0.67249-0.62463,1.33722-0.93195,2.00751L529.96741,548.78558l8.72925-2.70227l12.69415-5.30322l-0.81165-1.56769 l-0.22272-0.03674l-6.19843-12.37244l-17.73468-34.26788l0.57678,0.02338l-74.36459-148.42523l488.34634,80.02414 C940.82489,426.05267,940.64227,427.9455,940.47083,429.84055z M943.38354,370.01285 c-0.01337,2.27808-0.00671,4.54611-0.04236,6.83755c-0.04004,2.54529-0.12579,5.11508-0.19482,7.67593 c-0.06348,2.34933-0.10803,4.68753-0.19708,7.05023c-0.09351,2.54193-0.23383,5.1084-0.35742,7.66483 c-0.11578,2.41168-0.21484,4.81332-0.35626,7.2395c-0.14813,2.53748-0.34186,5.09836-0.51776,7.65033 c-0.14471,2.1055-0.27948,4.20541-0.44427,6.32092l-182.13977-29.84427l-308.54364-50.55621l-64.92609-129.58606l523.73883-34.76227 c0.23383,0.56784,0.46765,1.1357,0.69922,1.70799c0.58234,1.43854,1.18689,2.85594,1.75366,4.30896 c0.88293,2.26137,1.71686,4.5695,2.56311,6.86427c0.54443,1.47862,1.1134,2.93498,1.64337,4.42697 c0.82172,2.31036,1.59332,4.66637,2.3783,7.00902c0.50885,1.51982,1.04108,3.01849,1.5343,4.55168 c0.75604,2.34488,1.46307,4.73318,2.18231,7.11034c0.47656,1.5755,0.9776,3.13097,1.43854,4.72093 c0.69476,2.39163,1.33948,4.82448,1.9986,7.24617c0.43872,1.61447,0.90076,3.20778,1.32275,4.83562 c0.63354,2.43729,1.21924,4.91577,1.81604,7.38423c0.40082,1.65344,0.82501,3.29018,1.20917,4.95697 c0.56671,2.45511,1.08447,4.94919,1.61554,7.43324c0.36859,1.72246,0.7594,3.42601,1.11011,5.16072 c0.50214,2.47626,0.95532,4.98927,1.42188,7.49223c0.33289,1.78036,0.68695,3.54294,1.00092,5.33667 c0.43872,2.50186,0.82953,5.04047,1.2337,7.56793c0.29395,1.83383,0.60907,3.65094,0.88403,5.49701 c0.3797,2.54083,0.71039,5.11728,1.05444,7.68262c0.25165,1.86945,0.52441,3.7222,0.75714,5.60501 c0.31732,2.57199,0.58789,5.17743,0.87183,7.77393c0.20929,1.9151,0.44092,3.81461,0.63129,5.74194 c0.25494,2.57535,0.4621,5.18298,0.68365,7.78174c0.17035,1.98633,0.35962,3.95822,0.50995,5.95792 c0.19373,2.58206,0.3396,5.19638,0.49994,7.79956c0.12689,2.04758,0.27386,4.08182,0.37964,6.14166 c0.13477,2.59763,0.22046,5.22531,0.32178,7.84409c0.0824,2.10101,0.18372,4.18982,0.24384,6.3031 c0.07465,2.5787,0.10132,5.18521,0.14368,7.78284c0.03674,2.19345,0.09241,4.37354,0.10577,6.58035 C943.42694,364.86215,943.39691,367.44196,943.38354,370.01285z" fill="#bdf347"/></g></svg>